<?xml version="1.0" standalone="no"?>
<!DOCTYPE svg PUBLIC "-//W3C//DTD SVG 20010904//EN"
 "http://www.w3.org/TR/2001/REC-SVG-20010904/DTD/svg10.dtd">
<svg version="1.0" xmlns="http://www.w3.org/2000/svg"
 width="1280.000000pt" height="960.000000pt" viewBox="0 0 1280.000000 960.000000"
 preserveAspectRatio="xMidYMid meet">
<metadata>
Created by potrace 1.15, written by Peter Selinger 2001-2017
</metadata>
<g transform="translate(0.000000,960.000000) scale(0.100000,-0.100000)"
fill="#000000" stroke="none">
<path d="M0 9074 l0 -527 83 6 c45 4 97 7 115 7 20 0 31 4 27 10 -3 6 -15 10
-26 10 -21 0 -23 8 -10 28 6 10 10 10 21 -3 7 -8 16 -15 21 -15 14 0 11 28 -3
33 -10 4 -9 8 2 17 12 9 11 10 -7 5 -17 -5 -23 -2 -23 10 0 13 -5 16 -20 11
-68 -21 -67 -21 -47 1 22 25 13 34 -27 26 -30 -6 -31 -6 -13 14 9 11 17 25 17
32 0 7 6 11 14 8 10 -4 13 -1 10 8 -3 8 -1 22 5 32 6 11 11 13 11 5 0 -7 5
-10 10 -7 6 4 8 11 5 16 -4 5 5 9 19 9 13 0 32 8 42 18 10 9 20 16 23 15 3 -1
5 4 4 10 -2 9 27 13 100 15 214 6 220 6 282 -17 61 -23 157 -52 185 -55 9 -1
20 -5 27 -9 18 -11 103 -17 103 -8 0 9 61 21 110 22 14 1 32 -9 42 -21 10 -12
18 -18 18 -13 0 17 54 36 95 33 22 -1 52 -4 67 -5 15 -1 25 2 22 7 -3 4 1 8 8
8 7 0 19 10 27 21 12 20 18 21 93 15 52 -4 85 -3 93 4 19 16 91 18 88 3 -4
-18 51 -16 88 3 24 12 34 13 45 3 7 -6 12 -15 9 -19 -3 -4 2 -13 11 -20 12
-10 12 -15 2 -21 -17 -11 -7 -19 36 -26 27 -4 42 -1 56 12 11 10 33 19 50 21
16 2 41 11 55 20 13 9 28 13 33 10 6 -3 15 1 22 9 7 8 21 15 30 15 10 0 20 3
22 8 5 11 90 72 101 72 6 0 16 8 23 18 11 13 15 14 22 4 5 -7 16 -10 27 -6 13
5 16 4 11 -4 -4 -7 -1 -12 8 -12 9 0 22 -15 30 -34 16 -39 35 -54 46 -36 4 7
15 10 24 7 11 -5 15 -1 13 14 -2 18 4 21 41 23 34 2 42 -1 41 -13 -3 -32 1
-42 17 -39 10 2 19 -2 21 -9 5 -13 -51 -46 -61 -36 -11 11 -7 -7 8 -36 13 -24
25 -29 123 -50 59 -12 122 -24 138 -27 17 -2 45 -6 63 -9 23 -4 34 -2 38 9 3
8 19 19 36 25 16 6 32 20 35 31 3 11 13 20 23 20 20 0 51 23 112 83 21 20 43
37 48 37 13 0 53 22 62 35 4 5 10 6 14 2 4 -3 2 -12 -4 -20 -15 -17 -3 -34 31
-42 30 -8 33 -15 15 -33 -8 -8 -9 -12 -1 -12 17 0 43 29 44 48 0 12 3 11 9 -5
5 -13 35 -39 66 -59 43 -28 63 -35 85 -30 15 3 31 1 34 -4 8 -13 65 -40 86
-40 10 0 21 -4 24 -10 3 -5 16 -10 28 -10 16 0 19 -3 8 -9 -8 -5 11 -7 48 -4
45 4 61 2 59 -7 -2 -7 12 -14 37 -16 22 -3 45 -6 52 -9 7 -2 15 0 18 5 5 8 88
12 220 11 23 0 26 2 15 9 -12 7 -8 10 14 10 16 0 26 -3 22 -7 -4 -4 14 -13 41
-20 40 -11 50 -10 59 2 6 8 30 17 53 21 23 4 49 13 56 20 9 9 16 10 20 4 9
-15 35 -12 35 5 0 11 9 13 43 9 37 -5 46 -2 75 25 18 17 40 31 47 31 9 0 12 6
9 15 -4 8 -2 15 4 15 9 0 20 27 28 72 2 9 -1 20 -6 23 -6 3 -10 10 -10 14 0
12 114 2 118 -10 2 -5 10 -9 18 -9 8 0 11 -6 8 -15 -4 -8 -1 -15 5 -15 6 0 11
-9 11 -20 0 -13 7 -20 19 -20 10 0 21 -7 25 -15 7 -19 60 -20 75 -1 9 11 19
12 40 5 28 -10 48 -5 101 27 22 13 43 14 117 2 7 -1 14 -7 17 -15 7 -16 59
-17 103 -1 31 11 34 10 69 -25 43 -43 66 -52 92 -38 24 13 92 2 99 -15 3 -8
13 -14 22 -14 10 0 30 -13 44 -30 15 -16 32 -30 37 -30 6 0 22 -8 37 -17 35
-23 203 -30 203 -9 0 8 14 17 30 21 20 4 30 13 30 25 0 10 5 22 10 25 17 11
11 25 -7 18 -15 -6 -16 -4 -5 9 14 18 64 26 190 31 69 3 85 7 103 25 21 23 63
22 84 -2 6 -8 33 -11 76 -8 62 3 67 2 83 -22 16 -25 46 -36 46 -17 0 14 40 20
66 11 16 -6 24 -6 24 1 0 16 42 0 72 -28 23 -22 30 -24 55 -15 15 6 22 11 15
11 -10 1 -9 6 4 18 13 13 19 14 22 5 5 -17 67 -15 81 2 7 8 25 17 41 21 21 5
29 13 34 36 4 24 10 29 24 25 12 -4 26 2 38 16 10 12 14 18 7 15 -6 -4 -14 -3
-17 2 -8 13 25 39 69 53 33 11 41 18 43 41 2 20 8 27 18 23 7 -3 18 3 24 14
17 32 56 70 72 70 8 0 18 3 22 7 11 12 50 14 71 5 11 -5 33 -15 48 -21 15 -6
25 -16 22 -21 -3 -6 -1 -10 4 -10 6 0 11 -18 11 -40 0 -31 4 -40 18 -40 13 0
14 -2 4 -9 -10 -6 -8 -10 9 -14 16 -4 30 0 44 13 11 10 39 23 63 28 35 8 42 7
42 -5 0 -8 13 -20 30 -26 20 -8 28 -17 27 -32 -2 -17 3 -19 28 -17 17 2 34 -3
40 -10 5 -8 18 -17 28 -21 10 -4 15 -11 12 -17 -8 -12 -3 -13 29 0 14 5 26 15
26 23 0 25 102 50 193 47 28 -2 113 12 122 20 6 4 65 25 132 46 68 21 123 44
123 50 0 6 13 14 30 18 18 3 30 12 30 21 0 18 -17 20 -23 3 -10 -29 -16 1 -6
35 13 47 31 65 77 73 20 3 54 17 74 30 41 26 60 29 104 15 16 -5 41 -12 55
-15 33 -7 89 -63 89 -89 0 -14 5 -17 22 -12 17 6 20 4 15 -9 -4 -9 -1 -16 5
-16 6 0 16 -8 23 -17 12 -16 14 -16 39 0 15 10 31 15 37 11 6 -3 17 3 25 14
17 25 50 33 147 36 71 2 74 4 108 39 30 33 38 37 66 31 28 -5 48 -31 44 -56
-2 -12 48 -9 72 4 12 7 45 15 72 19 28 3 59 9 70 13 16 6 17 6 5 -3 -15 -10
-11 -13 20 -15 8 -1 20 -15 25 -32 6 -17 17 -39 25 -49 8 -10 13 -28 12 -41
-4 -29 16 -31 110 -10 35 8 92 17 128 20 36 3 106 10 155 15 50 5 92 7 94 5 2
-2 20 8 40 23 35 27 41 28 171 30 74 2 148 8 163 15 23 9 31 8 38 -3 5 -8 7
-20 4 -26 -3 -9 6 -13 24 -13 16 0 31 -5 33 -12 3 -7 12 -9 22 -5 9 4 14 11
11 17 -3 5 3 10 13 10 11 0 25 6 31 13 6 8 30 19 53 26 24 7 66 25 93 39 64
33 134 34 177 2 16 -12 32 -19 35 -16 4 3 1 6 -5 6 -7 0 -12 4 -12 10 0 6 9 6
25 0 13 -5 44 -9 67 -9 24 1 48 0 53 -1 23 -5 76 1 71 8 -2 4 0 14 5 22 8 13
10 13 20 0 9 -13 10 -13 6 2 -7 22 3 30 20 17 9 -9 17 -8 27 0 11 10 15 8 19
-6 3 -12 5 -8 6 10 1 24 4 27 26 22 14 -3 36 -7 50 -10 19 -4 25 -1 25 11 0
14 9 16 58 12 44 -4 60 -1 72 11 10 11 33 16 66 17 27 0 59 4 70 9 18 8 28 10
67 14 10 0 15 6 12 11 -4 6 6 10 23 10 17 0 32 6 36 15 3 8 12 15 20 15 8 0
21 -7 30 -15 8 -8 18 -15 22 -15 5 0 3 5 -4 12 -17 17 -15 28 4 21 9 -3 20 0
25 8 6 11 11 11 21 1 6 -6 25 -12 40 -12 20 0 28 -5 29 -17 0 -16 1 -16 8 1 7
17 17 19 79 18 71 -2 72 -1 72 24 0 19 4 25 15 20 10 -3 15 1 16 12 0 10 3 12
6 5 2 -7 14 -13 24 -13 11 0 17 5 14 10 -3 6 -1 10 5 10 6 0 15 10 20 23 6 15
9 17 9 6 1 -12 14 -18 49 -22 26 -3 51 -1 56 4 6 6 4 9 -7 9 -9 0 -17 6 -17
14 0 8 -6 17 -12 19 -8 4 -9 6 -2 6 6 1 17 -6 24 -14 17 -20 27 -19 35 4 7 24
42 34 49 14 4 -10 2 -13 -8 -10 -13 5 -36 -10 -36 -24 0 -4 17 -10 37 -14 21
-4 47 -12 57 -17 11 -6 46 -11 77 -12 57 -1 80 -9 64 -23 -4 -5 -10 -2 -12 5
-6 15 -23 6 -23 -13 0 -7 13 -16 29 -20 17 -3 32 -14 34 -23 4 -15 5 -15 6 1
1 21 21 23 21 2 0 -8 5 -15 10 -15 6 0 9 5 8 12 -2 6 5 14 15 16 10 2 17 -2
17 -11 0 -10 9 -12 31 -9 28 4 30 2 24 -17 -4 -15 -2 -21 8 -21 8 0 18 11 21
25 5 21 12 25 46 25 l40 0 0 110 0 110 -6400 0 -6400 0 0 -526z"/>
<path d="M0 8302 l0 -229 43 -13 c23 -7 51 -14 62 -16 25 -4 106 -20 165 -33
38 -8 50 -6 81 11 36 20 101 21 170 3 18 -5 31 -2 42 9 17 17 105 23 123 8 5
-5 41 -14 79 -22 39 -7 83 -19 100 -28 16 -8 51 -14 78 -13 35 1 55 -4 74 -19
14 -11 39 -20 55 -20 25 0 28 -3 23 -20 -4 -11 -2 -20 4 -20 6 0 11 5 11 11 0
5 5 7 12 3 22 -14 103 -11 121 5 9 8 27 16 40 17 12 1 34 6 50 9 15 4 27 3 27
-2 0 -12 50 -5 68 10 8 6 17 6 26 -2 15 -12 96 -11 96 2 0 4 12 7 26 7 15 0
23 4 18 11 -3 6 -16 8 -28 5 -22 -5 -54 8 -40 17 5 3 36 2 69 -2 41 -5 55 -10
43 -15 -24 -11 -23 -26 1 -26 24 0 52 37 44 57 -5 12 -7 12 -14 1 -7 -10 -16
-5 -39 20 -32 33 -31 45 1 16 17 -15 39 -12 39 5 0 5 -15 16 -32 25 -18 8 -26
16 -18 16 13 0 13 2 1 9 -9 6 -22 6 -32 0 -26 -13 -27 -12 -43 25 -14 34 -59
66 -92 66 -13 0 -14 -3 -4 -15 9 -10 9 -15 1 -15 -6 0 -11 4 -11 9 0 5 -8 12
-17 14 -17 4 -17 5 0 6 9 0 17 6 17 12 0 6 -7 8 -16 5 -21 -8 -95 4 -88 15 3
5 20 10 37 10 25 1 27 3 9 6 -15 3 -22 10 -18 18 2 7 -2 19 -10 25 -8 7 -14
18 -14 25 0 7 -9 15 -21 18 -19 5 -19 4 -5 -18 14 -22 12 -35 -6 -35 -4 0 -8
7 -8 16 0 10 -6 13 -19 9 -10 -3 -24 1 -31 10 -9 10 -16 12 -24 5 -7 -5 -25
-8 -42 -7 -23 2 -28 -2 -26 -17 2 -11 -1 -17 -10 -14 -7 3 -13 12 -13 21 0 8
-4 19 -8 23 -4 4 -7 0 -7 -9 0 -9 -4 -17 -10 -17 -5 0 -10 7 -10 16 0 12 -7
14 -30 9 -20 -4 -30 -3 -30 5 0 6 -5 8 -10 5 -6 -4 -17 -1 -25 5 -11 9 -15 9
-15 1 0 -6 -4 -11 -10 -11 -5 0 -10 6 -10 14 0 9 -17 16 -45 21 -25 3 -43 10
-40 16 4 5 -3 9 -15 9 -12 0 -28 7 -36 15 -9 8 -21 15 -27 15 -8 0 -7 -3 2 -9
10 -7 10 -10 1 -16 -7 -4 -16 -2 -20 5 -5 8 -20 11 -39 8 -17 -2 -31 -1 -31 3
0 4 -38 9 -85 11 -63 2 -85 0 -85 -9 0 -17 -15 -16 -30 2 -9 11 -31 14 -101
10 -69 -3 -87 -2 -83 9 3 9 -12 15 -52 22 -32 5 -59 15 -62 22 -3 9 4 11 25 7
28 -5 28 -5 3 6 -14 6 -39 8 -57 5 -17 -2 -34 -2 -36 2 -2 4 -2 1 -1 -5 2 -7
-3 -14 -11 -14 -49 -4 -77 -3 -82 4 -2 4 10 7 26 7 17 0 31 4 31 9 0 5 -17 7
-39 4 -23 -3 -41 -1 -45 6 -4 6 -2 11 4 11 6 0 8 5 5 10 -3 6 -15 10 -26 10
-18 0 -19 -9 -19 -228z"/>
<path d="M1624 8469 c-3 -6 -20 -8 -38 -5 -35 6 -73 -15 -61 -34 6 -9 2 -9
-12 -1 -11 6 -23 8 -26 4 -7 -6 -33 -10 -89 -12 -21 0 -38 -5 -38 -11 0 -5 6
-10 13 -10 17 0 50 -57 44 -75 -3 -7 3 -21 14 -31 24 -21 24 -40 2 -53 -16 -9
-16 -10 5 -11 12 0 22 5 22 11 0 7 10 9 27 5 17 -5 29 -3 34 6 7 10 9 10 9 1
0 -18 27 -16 34 2 3 8 15 15 26 15 11 0 20 7 20 15 0 8 5 15 10 15 6 0 10 -7
10 -15 0 -8 5 -15 10 -15 6 0 10 4 10 8 0 5 23 10 52 11 28 1 54 3 56 6 2 2
-5 16 -17 31 -19 24 -20 29 -6 44 8 9 12 20 8 23 -3 4 -1 7 6 7 7 0 9 5 4 13
-4 6 -8 17 -9 22 0 6 -2 19 -3 30 -2 11 -5 15 -7 9 -3 -8 -18 -9 -47 -3 -55
11 -55 11 -63 -2z"/>
<path d="M5686 7999 c-21 -10 -42 -16 -47 -14 -4 3 -11 1 -14 -5 -4 -6 -15 -8
-25 -5 -13 4 -22 -1 -30 -14 -6 -12 -16 -18 -26 -14 -8 3 -21 -2 -29 -13 -14
-20 -22 -22 -115 -30 -30 -3 -77 -8 -104 -11 -40 -4 -51 -2 -59 12 -7 14 -11
15 -18 4 -9 -15 -90 -13 -100 2 -3 6 -38 8 -81 4 -65 -4 -78 -3 -98 15 -19 16
-32 19 -69 15 -25 -4 -62 -8 -81 -9 -19 -2 -50 -7 -69 -11 -22 -5 -35 -4 -40
4 -11 17 -41 2 -34 -17 4 -15 3 -15 -6 -2 -16 22 -13 40 7 40 14 1 15 2 2 9
-38 21 -70 21 -87 1 -22 -26 -43 -26 -43 0 0 27 -16 25 -23 -2 l-6 -22 -24 22
c-27 25 -67 30 -67 7 0 -12 -18 -14 -105 -12 -58 1 -105 5 -105 10 0 4 -12 7
-27 6 -16 0 -22 -3 -15 -6 6 -2 12 -10 12 -15 0 -6 -3 -8 -7 -5 -3 4 -12 2
-19 -4 -8 -7 -14 -7 -19 1 -10 15 -23 12 -28 -7 -4 -15 -5 -15 -6 2 -2 31 -74
22 -101 -12 -16 -21 -26 -24 -50 -20 -18 4 -32 2 -37 -6 -16 -26 -228 -65
-236 -43 -3 7 -10 5 -18 -7 -11 -13 -22 -16 -47 -11 -17 4 -32 11 -32 16 0 5
-5 6 -11 2 -8 -5 -8 -9 1 -14 9 -6 7 -13 -9 -26 -21 -18 -28 -48 -13 -57 4 -2
2 -3 -4 -1 -7 1 -22 -4 -33 -13 -12 -8 -25 -12 -29 -8 -3 3 0 10 8 15 11 7 8
9 -12 8 -22 -2 -28 -8 -28 -25 0 -27 34 -40 57 -21 14 11 15 10 9 -8 -5 -15 0
-24 19 -34 13 -7 22 -16 20 -20 -9 -14 41 -39 56 -29 8 5 32 6 54 3 27 -4 55
0 82 11 38 15 44 15 72 1 29 -15 32 -15 48 3 9 11 20 18 24 15 5 -2 25 -5 46
-6 21 0 47 -8 57 -17 14 -12 20 -13 23 -3 3 6 9 10 14 6 5 -3 22 -7 37 -10 48
-8 58 -14 42 -24 -10 -6 -3 -10 24 -15 21 -4 42 -15 48 -25 9 -14 18 -16 39
-10 23 7 28 5 33 -13 3 -11 1 -28 -4 -38 -15 -28 12 -43 33 -19 21 24 22 40 3
40 -13 0 -30 39 -21 49 8 7 207 8 249 0 21 -4 42 -13 47 -20 7 -12 9 -11 9 1
0 12 2 12 9 1 6 -9 11 -10 15 -2 4 6 17 9 29 6 30 -8 67 19 50 36 -19 20 -16
27 11 22 17 -4 26 0 30 15 7 20 54 47 64 37 4 -3 1 -19 -5 -36 -11 -27 -10
-30 5 -24 9 4 57 11 105 16 49 5 98 16 110 24 12 8 30 15 40 15 9 0 20 7 23
15 4 8 11 15 18 15 13 0 46 35 46 49 0 14 43 28 83 26 21 -1 37 3 37 9 0 7 3
7 8 -1 4 -6 21 -14 37 -17 17 -2 30 -5 30 -6 0 -1 12 -4 28 -6 15 -3 27 -1 27
5 0 5 6 8 13 7 6 0 43 5 81 13 56 11 70 11 76 0 6 -9 12 -10 22 -2 7 6 30 14
52 17 34 7 36 9 21 20 -16 12 -13 14 23 20 23 3 42 11 42 16 0 6 13 10 29 10
33 0 48 14 29 26 -8 5 0 12 23 20 18 6 33 17 32 23 -2 6 2 11 7 11 6 0 10 5
10 10 0 6 -7 10 -16 10 -11 0 -14 6 -9 20 5 14 1 22 -12 26 -10 3 -25 9 -34
14 -9 5 -30 1 -53 -11z"/>
<path d="M200 5857 c0 -8 10 -19 23 -24 21 -10 20 -11 -16 -18 -41 -8 -61 0
-37 15 12 8 10 10 -8 10 -13 0 -20 4 -17 10 3 6 -3 10 -14 10 -10 0 -21 -4
-23 -9 -2 -5 -14 -11 -28 -14 -14 -2 -19 -2 -12 0 25 9 11 18 -28 18 l-40 0 0
-2927 0 -2928 113 0 c61 0 106 4 99 8 -8 6 0 15 28 31 22 12 44 19 50 16 5 -3
10 -2 10 4 0 14 52 39 68 34 6 -3 12 3 12 11 0 9 32 39 70 67 39 28 70 55 70
59 0 4 25 18 56 30 47 20 57 21 66 9 8 -11 9 -10 4 4 -3 11 0 17 10 17 8 0 19
11 24 24 6 17 21 28 47 35 21 6 56 25 78 43 40 33 102 61 116 52 5 -2 6 -11 3
-19 -4 -8 -10 -13 -14 -10 -12 8 -70 -16 -70 -28 0 -7 17 -13 38 -15 30 -2 39
2 47 20 6 13 20 24 33 26 13 2 32 12 43 23 20 20 49 26 49 9 0 -6 -8 -14 -17
-17 -22 -9 -52 -44 -53 -61 0 -9 10 -12 27 -10 21 2 29 10 35 35 6 24 21 39
62 62 29 17 63 31 75 31 l22 0 -20 -27 c-20 -25 -21 -27 -4 -46 18 -19 18 -18
50 18 23 27 37 35 51 31 24 -8 39 22 20 41 -11 10 -21 10 -51 1 -24 -7 -41 -8
-45 -2 -10 13 -39 16 -47 4 -9 -15 -32 -12 -32 4 0 8 8 12 21 9 18 -4 19 -3 6
7 -13 11 -13 11 0 7 8 -2 22 3 32 12 15 15 13 16 -30 15 -26 -1 -41 0 -35 3 7
3 13 9 13 15 0 6 -11 3 -25 -6 -26 -17 -70 -22 -61 -7 3 5 18 11 33 14 16 3
60 17 98 31 l70 26 -28 -25 -28 -25 33 1 c45 1 90 29 99 62 l7 26 -36 -18
c-24 -12 -42 -15 -52 -10 -8 5 -39 19 -67 31 -29 12 -53 27 -53 33 0 8 -16 11
-52 7 -58 -5 -58 4 0 26 47 19 141 21 168 5 16 -10 34 -10 95 1 41 8 83 18 93
22 16 6 18 4 14 -13 -5 -20 -4 -20 30 3 19 13 40 24 46 24 6 0 21 3 34 6 16 5
21 3 17 -7 -4 -10 4 -14 25 -14 16 -1 30 4 30 10 0 5 4 4 9 -4 6 -9 14 -10 26
-4 16 9 16 11 0 27 -13 13 -20 14 -31 5 -12 -10 -13 -9 -8 6 6 14 4 16 -7 10
-12 -7 -12 -6 -1 7 7 9 27 20 44 23 16 4 39 16 49 26 10 10 26 19 34 19 8 0
15 5 15 10 0 6 -20 10 -45 10 -45 0 -105 22 -105 39 0 5 -19 12 -42 16 -24 4
-37 9 -31 12 7 3 13 13 13 23 0 19 19 30 53 30 15 0 18 3 10 11 -6 6 -9 18 -6
25 5 13 1 15 -59 19 -9 0 -19 3 -23 6 -3 3 -39 4 -81 2 -55 -2 -83 1 -106 13
l-32 16 24 13 c17 9 24 22 25 41 0 20 8 32 25 41 22 12 20 13 -28 7 l-52 -7 3
47 c3 26 7 49 10 52 10 11 -17 31 -35 26 -12 -3 -18 1 -18 12 0 9 5 16 11 16
5 0 7 4 4 10 -4 6 -12 6 -24 -2 -12 -7 -26 -8 -47 -1 l-29 11 30 12 c17 7 35
13 42 14 17 3 29 16 15 16 -22 0 -12 20 13 26 14 3 25 10 25 14 0 5 8 9 18 10
91 5 132 13 132 27 0 12 -8 14 -37 8 -29 -5 -35 -4 -27 5 17 17 76 28 99 19
11 -4 37 -8 58 -8 35 -1 38 1 31 22 -6 21 -16 30 -30 27 -4 -1 -10 3 -13 9 -8
13 -47 16 -80 5 -22 -6 -22 -5 -11 16 11 20 10 22 -4 17 -9 -4 -16 -1 -16 4 0
6 9 9 20 6 10 -3 24 1 31 9 6 8 18 14 26 14 7 0 41 9 74 20 34 12 64 18 67 15
9 -9 -20 -25 -33 -17 -5 3 -4 -2 4 -12 12 -14 24 -16 61 -11 37 5 50 3 69 -14
13 -12 27 -21 30 -22 63 -11 161 2 161 22 0 8 -28 6 -67 -6 -7 -2 -15 0 -18 5
-4 6 2 10 12 11 36 1 68 10 89 23 20 14 21 13 16 -10 -5 -28 -1 -29 39 -8 17
8 37 13 45 10 8 -3 23 3 34 14 11 11 24 20 29 20 6 0 13 5 17 11 4 8 -1 9 -17
5 -13 -3 -18 -3 -11 0 10 5 10 9 1 20 -9 11 -6 11 18 -1 30 -15 76 -10 71 7
-5 13 -96 48 -125 48 -12 0 -25 -4 -28 -10 -3 -5 -20 -7 -37 -3 -26 5 -30 4
-25 -10 4 -12 1 -17 -9 -17 -14 0 -21 14 -28 47 -3 17 138 17 168 0 33 -18
106 -35 112 -26 8 14 41 11 47 -4 6 -15 77 -11 77 4 0 5 3 8 8 7 4 -1 25 4 47
10 53 16 60 15 44 -4 -12 -14 -11 -16 6 -13 11 3 20 11 20 19 0 11 19 17 75
23 115 12 140 17 140 27 0 5 -19 13 -42 18 l-43 10 40 2 c35 1 37 2 17 11 -14
5 -22 16 -20 26 4 22 26 28 24 6 0 -10 7 -19 18 -21 10 -2 16 0 12 6 -3 5 4
13 17 17 21 7 20 8 -8 14 l-30 7 34 7 c26 5 31 10 22 20 -6 8 -9 24 -6 36 4
21 2 23 -27 17 -17 -3 -37 -6 -45 -6 -8 0 -11 -5 -8 -10 3 -6 -4 -11 -17 -12
-13 0 -32 -2 -43 -2 -11 -1 -26 -5 -32 -9 -7 -5 -13 -4 -13 2 0 5 9 13 20 16
11 3 20 11 20 16 0 6 4 7 10 4 5 -3 20 0 32 6 34 19 68 20 116 4 30 -11 49
-12 62 -5 24 13 50 13 50 0 0 -5 -9 -10 -19 -10 -11 0 -23 -5 -26 -11 -4 -6 4
-9 22 -7 26 3 28 0 26 -28 -1 -29 1 -32 31 -36 28 -3 32 -1 28 14 -5 21 -13
23 -31 6 -11 -10 -13 -10 -7 0 4 7 2 12 -6 12 -17 0 30 25 68 35 16 5 33 7 39
6 5 -1 25 0 43 4 32 6 33 7 16 20 -18 14 -18 14 3 15 12 0 30 3 40 6 13 4 15
3 4 -4 -28 -20 13 -20 47 0 18 11 49 20 69 20 35 0 98 42 88 58 -7 11 21 20
59 20 18 0 41 6 51 14 17 12 10 13 -56 10 -54 -3 -68 -2 -51 6 12 5 22 14 22
21 0 6 7 9 14 6 10 -4 13 -1 10 8 -3 7 3 16 14 19 11 4 25 13 31 20 9 11 7 14
-13 12 -13 0 -22 -4 -20 -7 4 -7 -55 -18 -101 -19 l-30 -1 30 -13 30 -13 -50
-8 c-90 -15 -107 -13 -62 5 17 7 13 8 -18 4 -30 -4 -49 0 -75 17 -24 15 -55
23 -95 25 -40 2 -52 0 -35 -5 23 -7 22 -9 -15 -15 -22 -3 -52 -10 -67 -15 -16
-5 -28 -6 -28 -1 0 14 -82 22 -94 9 -8 -9 -7 -10 6 -6 10 3 20 2 23 -3 4 -6
-5 -10 -18 -10 -13 0 -45 -3 -71 -6 -38 -6 -46 -4 -46 10 0 9 7 16 16 16 8 0
12 -5 9 -10 -7 -11 15 -13 40 -4 24 10 -48 34 -105 35 l-45 2 38 13 c23 8 56
11 82 7 24 -3 52 -2 62 2 10 4 34 7 53 6 33 -1 34 -1 15 14 -11 8 -26 13 -34
10 -11 -4 -12 -3 -1 10 7 9 29 15 51 15 22 0 39 5 39 10 0 6 -4 10 -10 10 -5
0 -7 7 -4 15 4 11 21 15 56 15 30 0 47 4 43 10 -4 6 7 10 24 10 17 0 31 5 31
11 0 5 5 7 12 3 7 -5 9 -2 5 9 -4 10 0 17 11 20 9 3 4 5 -13 6 -28 2 -29 3 -7
11 12 5 22 14 22 20 0 15 65 41 84 34 8 -3 24 0 36 6 18 10 24 9 31 -1 4 -7
24 -13 43 -12 20 1 36 -3 36 -8 0 -13 28 -11 36 3 4 7 3 8 -4 4 -7 -4 -12 -2
-12 5 0 7 10 9 30 6 18 -4 30 -2 30 4 0 6 -4 7 -10 4 -6 -3 -7 1 -4 9 7 18 20
21 28 7 10 -16 42 -1 42 20 0 22 -34 26 -55 7 -11 -11 -13 -10 -8 5 4 11 3 16
-3 12 -6 -3 -10 -1 -10 4 0 6 5 11 10 11 6 0 10 11 10 25 0 16 6 25 16 25 8 0
22 7 30 15 20 19 41 20 25 1 -9 -11 -8 -15 5 -20 29 -11 46 -7 40 10 -4 12 -2
15 9 10 8 -3 15 -1 15 5 0 5 19 19 43 30 l42 19 -68 -5 c-41 -4 -81 -14 -100
-26 -33 -19 -104 -25 -142 -10 -17 7 -17 8 7 13 15 3 25 1 22 -3 -3 -5 -1 -9
5 -9 5 0 18 13 27 29 12 20 28 31 53 36 19 4 47 14 61 24 14 9 39 18 55 20 17
2 35 6 40 11 6 4 31 11 56 14 27 4 59 17 74 30 l27 23 -23 6 c-12 3 -35 3 -50
0 -22 -4 -29 -2 -29 11 0 9 -7 16 -17 16 -9 0 -14 2 -11 5 9 9 58 -6 52 -16
-3 -5 0 -9 5 -9 6 0 11 5 11 10 0 6 9 10 20 10 11 0 20 4 20 10 0 5 6 7 14 4
8 -3 17 -1 20 5 4 6 -14 9 -49 8 -30 -1 -55 -5 -55 -8 0 -3 -20 -1 -44 5 -39
9 -43 12 -35 29 8 14 20 18 46 15 23 -2 38 2 41 10 2 6 12 12 23 12 27 0 24
20 -3 21 -22 0 -22 1 -3 8 11 5 34 6 50 4 20 -3 36 1 50 14 21 20 109 48 99
32 -3 -5 -11 -9 -18 -9 -8 0 -24 -9 -37 -19 -24 -20 -24 -20 31 -4 30 8 60 20
65 25 6 6 3 7 -10 2 -16 -5 -17 -4 -9 5 9 9 17 10 31 3 11 -6 34 -10 52 -10
18 1 37 -5 42 -13 7 -12 10 -11 21 2 7 9 25 19 41 21 22 4 25 3 16 -8 -9 -11
-8 -14 4 -14 26 0 38 32 19 47 -16 11 -16 12 0 13 9 0 20 5 24 12 4 6 3 9 -2
6 -5 -3 -31 -2 -57 2 -33 5 -52 3 -60 -5 -7 -6 -36 -15 -66 -18 -66 -8 -62 2
6 12 29 4 47 12 45 19 -1 7 11 15 28 18 16 4 30 11 30 17 0 6 3 7 6 4 4 -4 1
-14 -7 -24 -9 -11 -3 -9 16 5 17 14 31 19 33 13 2 -6 8 -11 13 -11 6 0 7 5 3
12 -4 6 1 17 11 25 11 7 14 13 8 13 -7 0 -15 -5 -18 -10 -4 -6 -12 -7 -23 -1
-8 5 -51 6 -94 3 -73 -4 -78 -4 -72 13 5 13 4 16 -4 11 -7 -4 -12 -4 -13 1 0
4 -2 16 -4 26 -3 16 2 18 38 13 23 -3 34 -3 25 0 -10 3 -18 10 -18 15 0 6 4 7
10 4 5 -3 17 -2 26 3 27 15 2 20 -51 11 -83 -15 -89 -15 -113 9 l-23 23 28 -7
c19 -4 24 -3 15 4 -8 5 -13 13 -12 18 0 5 -8 10 -20 12 -27 5 -25 16 5 30 33
15 52 15 59 0 3 -7 4 -4 3 7 -2 16 4 20 25 20 36 1 48 14 20 22 -36 9 -25 23
21 24 l42 1 -38 8 c-55 10 -57 20 -4 20 25 0 48 4 52 9 3 6 -10 8 -32 5 -38
-4 -33 0 20 16 17 6 25 6 22 0 -4 -6 -2 -10 4 -10 5 0 12 4 15 9 4 5 23 8 44
6 20 -1 43 2 51 8 7 6 30 19 50 29 22 11 28 17 16 16 -11 0 -28 2 -37 7 -10 4
-25 5 -33 1 -8 -3 -15 -1 -15 3 0 5 32 15 70 21 45 8 68 16 63 22 -3 7 -1 8 5
4 6 -4 22 -1 34 5 20 11 21 10 11 -3 -11 -13 -9 -14 21 -4 19 6 34 13 33 16
-2 6 8 10 24 10 5 0 8 -4 5 -8 -2 -4 11 -6 29 -4 22 3 32 8 29 17 -4 10 9 13
49 14 30 0 59 1 63 2 5 1 22 -3 37 -9 35 -15 54 -15 62 -2 4 6 11 7 17 4 6 -4
14 0 19 7 6 10 11 11 17 3 9 -14 66 -29 57 -14 -3 5 1 10 9 10 9 0 16 -4 16
-10 0 -5 4 -10 8 -10 5 0 9 7 9 15 0 10 -10 15 -29 15 -15 0 -28 4 -28 9 0 5
-8 12 -17 15 -10 2 0 2 22 0 30 -4 36 -3 25 5 -8 6 -23 11 -32 11 -10 0 -18 4
-18 10 0 5 -16 12 -35 16 -56 10 -48 19 19 22 33 1 75 7 93 11 17 5 35 5 40 1
4 -4 21 -11 38 -15 l30 -7 -23 20 -22 19 31 7 c17 3 49 6 71 6 21 0 37 4 34 9
-3 5 -31 7 -61 5 -31 -1 -53 1 -50 5 2 5 -8 11 -23 14 -28 5 -47 -2 -24 -10
25 -9 11 -19 -20 -15 -28 4 -30 6 -13 13 20 8 20 8 0 8 -17 1 -17 3 -5 11 8 5
26 10 39 10 13 0 29 7 35 15 6 8 30 15 53 17 23 1 40 5 38 8 -3 4 -24 5 -49 3
-25 -3 -47 0 -50 6 -4 6 -3 11 3 11 6 0 8 8 5 18 -5 13 -4 14 4 3 11 -15 72
-6 72 11 0 6 7 8 15 4 8 -3 15 -2 15 3 0 5 10 11 23 14 21 6 21 6 3 -8 -11 -8
-15 -15 -9 -15 7 0 15 5 19 11 3 6 17 9 30 6 13 -2 32 2 41 9 10 7 13 14 6 14
-6 0 -14 -4 -17 -9 -6 -9 -56 -3 -56 8 0 3 -33 6 -72 5 -40 -1 -79 2 -87 6
-19 10 70 23 94 14 12 -5 16 -4 12 3 -4 6 4 14 18 17 14 4 23 11 20 16 -3 4 3
11 12 13 14 4 13 5 -4 6 -12 0 -23 -3 -25 -9 -2 -5 -9 -6 -17 -1 -10 6 -4 12
23 22 20 7 36 16 36 20 0 8 -59 4 -91 -6 -14 -5 -19 -4 -15 4 4 6 15 11 24 11
9 0 24 5 32 11 13 9 12 10 -2 5 -10 -3 -18 -1 -18 4 0 6 5 10 11 10 5 0 8 4 4
9 -3 5 -1 12 5 16 6 4 8 11 5 16 -3 5 2 6 11 2 11 -4 15 -3 10 5 -4 7 6 13 29
18 19 3 35 10 35 15 0 5 9 9 19 9 11 0 21 5 23 12 3 8 16 7 46 -5 45 -18 92
-22 92 -9 0 7 -84 30 -170 47 -22 5 -22 4 -5 -4 16 -8 12 -10 -22 -10 -45 -1
-52 6 -30 28 10 11 8 12 -9 3 -21 -11 -34 -7 -34 10 0 13 51 31 80 29 14 -1
63 -9 110 -18 67 -12 98 -14 150 -6 l65 11 -55 2 c-30 1 -75 2 -100 2 -37 0
-41 1 -22 9 12 4 44 11 70 13 26 3 49 6 52 7 3 0 15 0 27 -1 12 -1 30 4 40 10
17 11 17 11 -1 5 -21 -6 -37 11 -29 30 2 7 12 11 22 8 11 -3 21 2 24 11 4 9
18 16 32 16 36 0 30 29 -10 44 -16 6 -17 9 -5 16 8 5 35 12 60 16 25 4 55 13
67 21 12 8 30 14 40 13 10 -1 41 -1 68 0 l50 2 -50 13 c-27 7 -73 14 -102 14
-74 1 -75 18 -1 24 96 8 136 18 142 33 4 11 -12 14 -82 15 l-87 2 60 10 c33 5
63 14 66 19 3 5 37 7 75 5 38 -2 63 -2 57 0 -7 3 -13 11 -13 19 0 8 -6 15 -12
15 -7 1 14 7 47 14 l60 13 -45 1 c-30 1 -40 4 -31 10 7 5 10 14 6 21 -5 9 -2
10 14 5 15 -4 21 -2 21 9 0 10 12 16 38 18 l37 4 -43 8 c-56 11 -42 25 32 33
31 3 59 10 62 14 3 5 -1 7 -8 4 -7 -2 -53 -1 -103 4 -71 6 -79 9 -37 10 33 0
51 5 47 11 -3 6 4 11 17 12 13 0 3 4 -22 8 -29 4 -35 8 -18 8 26 2 51 22 27
22 -8 0 -8 4 1 15 7 8 21 15 32 15 10 0 17 4 14 9 -3 5 9 11 27 14 17 3 61 10
97 15 36 6 92 14 125 18 33 3 70 10 83 15 12 5 22 5 22 1 0 -4 5 0 10 8 6 10
10 11 10 3 0 -8 13 -13 33 -12 27 0 29 2 12 10 -14 6 -8 7 21 3 23 -3 45 -1
48 4 3 5 -42 12 -105 15 -129 8 -163 19 -103 36 21 6 48 11 59 11 23 0 10 16
-20 23 -11 3 -1 4 22 4 24 -1 43 -5 43 -9 0 -5 3 -7 8 -7 4 1 16 0 27 -1 17
-2 17 -3 -5 -11 -24 -8 -24 -8 5 -7 17 0 38 -3 48 -7 16 -7 45 -3 83 12 11 4
15 3 10 -5 -3 -6 -2 -13 3 -16 12 -8 147 -25 211 -27 27 -1 55 -6 62 -10 11
-7 11 -9 0 -9 -7 0 -10 -5 -6 -11 4 -8 -1 -9 -16 -4 -15 5 -20 4 -16 -4 4 -6
-4 -10 -21 -10 -62 1 -210 -18 -228 -30 -19 -12 -19 -12 -1 -7 16 6 17 4 6 -9
-11 -13 -7 -15 31 -16 30 -2 35 -3 17 -6 -16 -2 -28 -9 -28 -14 0 -10 31 -10
75 1 24 6 26 8 8 9 -13 0 -23 6 -23 11 0 6 10 8 23 6 12 -3 49 -8 81 -11 33
-4 66 -13 73 -21 8 -8 23 -15 34 -15 10 -1 24 -3 29 -4 6 -1 22 -3 36 -4 14 0
23 -5 20 -10 -3 -5 0 -9 7 -8 6 0 39 -1 72 -3 53 -3 55 -4 20 -8 l-40 -5 60
-14 c33 -8 69 -14 80 -14 34 1 66 -9 60 -19 -4 -6 10 -10 33 -10 21 0 42 -3
46 -7 3 -4 14 -7 24 -8 130 -12 173 -18 162 -25 -9 -6 -2 -11 23 -15 19 -4 40
-4 46 0 6 3 11 1 11 -4 0 -6 21 -11 48 -12 26 0 56 -5 67 -10 14 -6 1 -7 -40
-4 -69 5 -120 7 -154 6 -22 -1 -21 -3 14 -26 20 -14 53 -30 73 -34 l37 -9 -35
-2 -35 -3 40 -6 c22 -4 51 -4 65 0 16 4 30 1 38 -7 11 -12 6 -14 -27 -14 -22
0 -42 -4 -45 -9 -3 -4 -18 -6 -33 -3 -16 2 -26 2 -23 -1 3 -3 17 -7 32 -9 14
-2 33 -10 42 -17 22 -19 31 -8 11 13 -21 20 -16 20 25 0 25 -13 34 -14 40 -4
4 7 13 9 20 5 9 -6 11 -4 5 5 -6 10 -4 12 11 6 10 -5 48 -10 84 -12 36 -3 81
-9 100 -14 31 -8 28 -9 -20 -5 -30 2 -46 2 -35 -1 34 -10 41 -24 12 -24 -15 0
-27 -5 -27 -11 0 -8 17 -10 50 -7 27 3 47 1 44 -4 -3 -4 2 -8 10 -8 9 0 13 6
10 14 -4 11 0 13 15 9 13 -3 21 -1 21 7 0 7 12 1 26 -13 14 -14 31 -24 37 -21
7 2 26 -5 42 -16 17 -11 26 -20 21 -20 -5 0 -4 -6 2 -13 9 -10 -6 -11 -76 -6
-48 4 -94 3 -103 -1 -9 -5 -24 -7 -35 -4 -10 2 -46 1 -79 -4 l-60 -9 35 -16
c19 -8 37 -11 40 -7 8 12 183 4 270 -13 41 -8 84 -15 95 -14 11 0 34 0 50 -2
26 -1 28 -3 12 -12 -20 -12 -119 -4 -148 12 -29 15 -109 13 -136 -4 -7 -5 -17
-6 -22 -2 -5 3 -12 2 -15 -3 -2 -4 11 -12 29 -18 19 -6 32 -7 29 -3 -2 4 0 10
6 14 5 3 10 -3 10 -13 0 -15 5 -19 19 -15 10 3 22 0 25 -6 9 -14 -58 -15 -83
-2 -9 5 -23 6 -30 1 -9 -5 4 -12 40 -19 54 -10 107 -13 289 -13 52 -1 86 -4
76 -8 -16 -5 -17 -7 -4 -12 9 -4 27 -1 41 7 15 7 30 9 38 4 10 -6 8 -9 -8 -9
-12 0 -25 -4 -28 -10 -3 -5 -1 -10 5 -10 6 0 8 -5 3 -12 -4 -7 5 -5 20 5 14 9
41 17 59 17 27 0 36 5 46 30 13 29 32 41 32 20 0 -5 -5 -10 -11 -10 -8 0 -7
-5 1 -15 7 -9 21 -13 31 -10 11 4 19 2 19 -5 0 -6 10 -15 23 -20 16 -8 6 -9
-41 -5 -50 3 -64 1 -69 -11 -4 -11 -9 -12 -19 -3 -10 8 -26 7 -65 -6 -28 -10
-47 -20 -42 -24 6 -3 12 -12 15 -20 2 -8 14 -15 25 -16 14 -1 19 3 16 12 -7
18 2 16 21 -3 9 -9 16 -11 16 -4 0 6 5 8 10 5 16 -10 11 -25 -8 -25 -10 0 -24
-6 -31 -12 -11 -10 -13 -10 -7 0 5 7 1 12 -9 12 -9 0 -14 -4 -11 -8 3 -5 -8
-6 -25 -4 -31 5 -36 -9 -12 -35 14 -15 27 -17 18 -3 -4 7 3 7 19 0 24 -9 30
-6 27 13 0 4 3 7 9 7 13 0 13 -21 1 -53 -8 -19 -6 -27 4 -31 8 -3 17 -1 20 4
3 4 -1 10 -7 13 -10 3 -10 9 0 26 7 12 10 27 6 34 -5 8 -2 8 7 -1 8 -7 15 -17
15 -23 1 -5 2 -14 3 -20 0 -5 5 -8 10 -5 5 3 20 -3 32 -14 21 -17 22 -21 9
-30 -8 -6 -23 -8 -32 -6 -10 2 -21 0 -24 -5 -3 -5 -17 -9 -32 -8 -25 0 -25 1
-7 10 17 8 16 8 -7 4 -16 -3 -32 1 -41 9 -14 14 -67 17 -67 4 0 -5 13 -8 28
-8 16 0 42 -11 58 -25 30 -26 36 -28 69 -26 11 1 29 -5 40 -14 19 -15 18 -15
-20 -11 l-40 5 50 -24 c28 -13 60 -24 72 -24 12 -1 24 -5 27 -10 3 -5 30 -15
58 -22 29 -6 90 -25 136 -41 56 -19 106 -29 156 -31 41 -1 69 -5 62 -9 -13 -9
-2 -10 64 -9 36 1 41 -1 27 -9 -27 -17 -20 -30 17 -30 25 0 35 -5 39 -19 3
-14 1 -18 -9 -14 -8 3 -14 1 -14 -5 0 -5 10 -12 23 -16 37 -10 47 -7 40 12 -5
13 -3 14 7 5 7 -6 19 -9 28 -6 11 5 13 3 7 -6 -8 -14 10 -31 35 -31 13 0 13 1
0 10 -8 5 -10 10 -4 10 19 0 47 -27 40 -39 -4 -6 -12 -9 -17 -5 -5 3 -15 1
-22 -4 -7 -5 -23 -13 -37 -17 -22 -7 -23 -6 -12 8 8 9 9 18 3 21 -14 9 -23
-11 -16 -34 4 -13 2 -20 -7 -21 -18 -2 -21 -1 -40 6 -13 5 -18 2 -18 -10 0 -9
-5 -13 -10 -10 -6 3 -10 2 -10 -3 0 -5 -28 -12 -62 -16 -35 -3 -64 -10 -66
-15 -1 -4 -18 -6 -37 -4 -19 2 -37 -2 -41 -9 -5 -8 -2 -9 11 -4 15 5 16 4 5
-9 -10 -12 -10 -15 4 -15 10 0 15 -4 11 -9 -7 -12 17 -20 72 -23 22 -2 39 -6
36 -10 -6 -11 9 -10 26 1 7 5 10 14 7 20 -7 11 32 31 61 31 30 0 4 -13 -37
-19 -3 -1 -6 -10 -6 -20 0 -11 3 -19 6 -19 3 0 7 -1 10 -2 3 -1 27 -4 53 -5
27 -1 54 -8 60 -14 6 -6 29 -11 51 -11 32 0 38 -3 26 -11 -12 -9 -12 -10 3 -5
10 3 21 6 24 6 3 0 0 7 -7 15 -7 8 -19 15 -26 15 -8 0 -14 4 -14 9 0 10 39 3
57 -11 6 -5 9 -16 6 -24 -3 -8 0 -14 7 -14 6 0 9 4 6 9 -10 15 23 21 37 6 12
-11 18 -12 41 0 22 12 26 12 26 -1 0 -8 -4 -13 -9 -10 -12 8 -33 -19 -23 -29
4 -4 -4 -2 -16 4 -13 7 -26 10 -29 7 -8 -8 7 -26 23 -26 8 0 14 -4 14 -10 0
-5 -7 -10 -16 -10 -8 0 -12 -5 -9 -10 3 -6 15 -10 25 -10 13 0 17 -5 14 -15
-4 -10 0 -15 15 -15 12 0 21 5 21 11 0 8 5 8 15 -1 16 -13 50 -6 41 9 -8 12 4
41 16 41 6 0 8 -9 5 -21 -4 -15 -2 -19 10 -15 8 3 17 6 19 6 2 0 4 6 4 14 0
11 10 9 43 -9 23 -14 51 -25 62 -25 26 0 52 -17 42 -26 -4 -4 -13 -2 -19 4 -7
7 -21 12 -32 12 -15 0 -17 -3 -9 -11 6 -6 38 -13 70 -14 116 -6 149 -12 214
-44 37 -17 86 -46 110 -65 24 -18 62 -39 84 -46 22 -7 56 -21 77 -31 34 -17
36 -20 25 -44 -8 -16 -20 -25 -36 -25 -27 0 -91 -21 -91 -30 0 -3 -4 -11 -9
-19 -7 -10 -13 -11 -30 -2 -19 10 -21 9 -21 -13 0 -22 5 -25 55 -31 30 -4 65
-15 78 -25 26 -20 62 -33 97 -35 34 -2 59 -13 98 -47 43 -37 99 -65 166 -82
62 -16 101 -35 92 -44 -4 -3 -12 0 -18 6 -7 7 -21 12 -32 11 -14 0 -16 -2 -6
-6 8 -2 24 -8 35 -13 11 -5 36 -11 55 -12 20 -2 34 -8 33 -15 -1 -6 5 -17 15
-25 15 -11 16 -11 5 3 -7 9 -10 19 -6 22 11 12 23 8 23 -7 0 -9 24 -18 71 -27
77 -15 93 -34 28 -33 -37 1 -40 -1 -23 -13 10 -7 29 -13 43 -14 14 0 20 -3 13
-6 -25 -10 1 -23 46 -23 26 0 54 -5 62 -11 11 -7 5 -9 -25 -8 -22 2 -65 1 -95
0 -49 -2 -52 -3 -30 -13 l25 -10 -26 -8 c-15 -4 -50 -7 -78 -6 -28 0 -52 -2
-54 -5 -1 -4 -25 1 -53 10 -43 14 -53 15 -60 4 -7 -11 -15 -11 -40 -1 -36 13
-101 0 -96 -21 2 -8 -3 -9 -14 -3 -9 5 -28 7 -42 4 -24 -5 -25 -6 -7 -13 20
-8 20 -8 0 -8 -17 -1 -17 -3 -5 -11 12 -8 8 -10 -15 -11 -29 -1 -28 -2 10 -13
22 -7 40 -19 40 -26 0 -17 21 -24 30 -11 3 6 0 11 -7 12 -7 1 -2 5 12 9 23 7
23 8 3 9 -12 1 -25 6 -29 13 -4 7 -3 8 5 4 6 -4 25 0 43 8 34 17 68 13 68 -9
0 -7 6 -16 13 -18 7 -4 3 -8 -10 -12 -37 -11 -27 -20 22 -20 30 0 49 5 55 15
8 13 10 12 10 -3 0 -14 6 -16 28 -11 54 12 62 16 62 29 0 7 6 15 13 18 6 3 3
5 -8 4 -11 0 -33 3 -49 7 -26 6 -28 5 -17 -8 7 -8 22 -17 34 -19 12 -3 -8 -4
-45 -3 -63 1 -65 2 -41 15 20 10 23 15 12 22 -8 5 -23 9 -33 9 -19 0 -19 0 0
19 18 17 43 17 55 -1 3 -5 19 -11 35 -13 16 -2 31 -5 34 -6 3 -1 14 -2 25 -3
34 -2 67 -17 94 -42 14 -13 35 -24 46 -24 28 0 50 -15 36 -24 -6 -4 -11 -3
-11 2 0 6 -20 12 -45 14 -25 2 -45 0 -45 -3 0 -10 27 -30 36 -28 9 2 34 -6 69
-22 15 -7 12 -8 -12 -3 -25 4 -33 2 -33 -9 0 -10 13 -16 40 -19 22 -2 40 1 40
6 0 5 3 6 8 2 4 -4 7 -13 7 -19 0 -14 68 -10 73 4 2 5 11 9 19 9 9 0 14 -3 10
-6 -9 -10 26 -44 46 -44 10 0 15 -4 12 -10 -3 -6 1 -10 9 -10 9 0 16 5 16 10
0 15 62 11 84 -5 22 -17 60 -20 51 -5 -12 20 -82 47 -118 45 -21 0 -37 2 -37
5 1 21 25 33 71 36 39 3 49 2 34 -5 -17 -8 -14 -10 15 -9 34 2 98 -7 133 -18
35 -11 16 -21 -28 -14 -25 4 -45 3 -45 -1 0 -4 19 -9 42 -11 23 -2 43 -9 46
-16 3 -9 -3 -10 -25 -2 -26 9 -27 9 -9 -5 22 -17 91 -21 81 -5 -3 6 -13 10
-21 10 -8 0 -12 5 -9 10 10 16 21 12 56 -17 32 -27 32 -27 18 -3 -8 14 -18 28
-24 32 -6 5 -6 8 2 8 6 0 21 -12 32 -26 12 -15 21 -22 21 -15 0 6 9 11 19 11
15 0 18 -5 13 -22 -5 -19 -4 -20 10 -8 9 8 13 22 10 30 -3 9 6 5 21 -9 15 -14
27 -20 27 -15 0 5 4 4 8 -2 10 -15 72 -35 72 -23 0 5 -13 12 -28 15 -36 7 -85
43 -59 44 9 0 17 -4 17 -8 0 -5 26 -17 58 -28 31 -10 62 -25 68 -33 6 -8 20
-12 33 -8 11 3 19 1 16 -3 -3 -5 5 -10 17 -12 17 -2 23 -10 23 -27 0 -17 9
-28 26 -35 14 -6 34 -17 43 -25 12 -10 20 -11 24 -4 5 8 25 8 72 0 58 -11 63
-14 48 -27 -14 -14 -11 -16 34 -25 27 -5 49 -14 49 -20 -1 -5 -5 -10 -10 -10
-5 0 -13 -3 -17 -7 -4 -5 0 -8 9 -8 10 0 17 -7 17 -15 0 -8 6 -15 14 -15 7 0
19 -7 26 -15 14 -17 110 -21 110 -5 0 6 -6 10 -12 10 -7 0 -4 6 6 12 15 8 21
8 24 0 7 -22 20 -12 14 11 -5 21 -4 21 14 5 10 -9 30 -18 44 -20 17 -2 25 -9
25 -23 0 -15 6 -19 25 -17 20 2 22 1 10 -8 -13 -9 -13 -11 0 -20 13 -8 39 -6
78 6 7 2 10 9 7 15 -4 6 -1 10 6 8 34 -4 42 0 28 17 -10 13 -10 17 2 26 11 7
8 8 -9 5 -13 -3 -21 -3 -18 1 4 3 -4 12 -16 19 l-23 14 25 -7 c52 -14 68 -23
75 -43 3 -12 11 -21 17 -21 6 0 8 -3 5 -6 -4 -4 -14 -1 -24 7 -15 12 -16 12
-10 -4 4 -11 1 -20 -9 -24 -13 -5 -13 -7 -2 -14 10 -7 9 -9 -4 -9 -9 0 -20 5
-23 10 -10 15 -24 2 -22 -20 1 -11 7 -20 15 -20 7 0 10 5 7 10 -3 6 1 10 9 10
22 0 20 -17 -2 -25 -18 -5 -18 -7 2 -50 12 -24 28 -44 36 -44 12 -1 12 1 2 8
-10 6 -8 10 8 14 13 3 28 -1 40 -13 17 -17 17 -18 -13 -24 l-31 -6 24 -22 c19
-18 34 -21 88 -21 65 1 104 -9 131 -33 24 -21 -14 -29 -44 -10 -14 9 -25 12
-25 7 0 -5 -11 -12 -25 -15 -32 -8 -33 -39 0 -64 13 -11 22 -22 18 -26 -3 -3
-13 -1 -20 6 -11 9 -17 9 -24 -3 -15 -24 -10 -29 34 -29 40 0 107 -19 149 -41
17 -9 18 -6 16 25 -1 19 -5 33 -9 30 -9 -5 -49 44 -49 62 0 9 8 10 30 4 l30
-9 0 1780 0 1779 -137 0 c-76 0 -680 5 -1343 10 -663 5 -1700 12 -2305 16
-605 3 -1131 8 -1170 9 -38 2 -392 4 -785 5 -769 3 -963 7 -955 20 3 5 1 11
-5 15 -5 3 -10 -1 -10 -9 0 -24 -77 -22 -83 2 -4 16 -5 16 -6 0 -1 -17 -15
-18 -173 -16 l-173 2 145 3 c79 2 149 8 154 13 7 7 4 10 -6 10 -9 0 -25 3 -35
6 -15 5 -15 4 -3 -5 11 -8 -5 -10 -65 -9 -44 1 -63 3 -41 5 l39 4 -24 17 c-16
11 -24 12 -27 4 -6 -19 -32 -14 -32 6 -1 16 -1 16 -11 -1 -14 -23 -69 -20 -69
4 0 10 6 20 13 22 11 5 -19 2 -83 -8 -29 -4 -30 -4 -15 18 14 22 14 22 -25 19
-24 -3 -47 2 -60 11 -12 8 -30 13 -40 10 -11 -3 -28 4 -41 16 -26 24 -46 22
-41 -4 2 -12 -1 -15 -10 -9 -7 5 -24 8 -38 7 -14 -1 -18 1 -8 3 9 3 19 12 22
21 5 11 2 14 -10 9 -10 -4 -31 6 -54 24 -36 28 -43 30 -101 26 -35 -3 -66 -10
-70 -18 -6 -9 -10 -8 -15 5 -8 22 -40 22 -48 1 -6 -15 -9 -14 -31 6 -23 22
-26 22 -43 7 -11 -10 -35 -17 -60 -17 -39 0 -42 2 -43 28 -1 16 -3 20 -6 10
-2 -10 -13 -18 -24 -18 -11 0 -18 4 -14 9 3 5 1 12 -5 16 -5 3 -10 -1 -10 -9
0 -9 -4 -16 -10 -16 -5 0 -10 5 -10 11 0 8 -5 7 -15 -1 -12 -10 -19 -10 -27
-2 -8 8 -15 7 -25 -4 -8 -8 -20 -14 -26 -13 -9 0 -8 2 1 6 6 2 12 9 12 15 0 6
-7 7 -16 4 -27 -10 -84 4 -84 21 0 13 -3 13 -15 3 -8 -7 -22 -10 -30 -6 -8 3
-15 1 -15 -4 0 -6 -9 -10 -20 -10 -11 0 -20 6 -20 14 0 15 -37 29 -42 16 -5
-14 -78 -24 -78 -11 0 6 -17 11 -39 11 -22 0 -42 5 -44 13 -4 10 -6 10 -6 0
-1 -18 -30 -16 -37 2 -6 14 -8 13 -20 -2 -8 -10 -13 -13 -14 -6 0 7 -7 10 -15
7 -8 -4 -15 -1 -15 5 0 15 -37 14 -43 -1 -3 -8 -6 -6 -6 5 -1 11 6 17 19 17
33 0 22 18 -13 22 -20 2 -39 -2 -46 -10 -7 -7 -19 -11 -27 -8 -8 3 -14 0 -14
-6 0 -6 -8 -4 -18 5 -24 22 -48 22 -61 0 -6 -10 -11 -12 -11 -5 0 6 -10 12
-23 12 -13 0 -27 4 -33 10 -6 6 -19 4 -38 -5 -15 -8 -32 -12 -37 -9 -5 3 -26
-4 -45 -15 -25 -15 -51 -21 -87 -20 l-52 1 53 8 c29 4 56 11 60 15 4 5 -4 5
-17 2 -14 -3 -30 -2 -37 4 -9 7 -19 6 -34 -3 -18 -11 -22 -11 -31 5 -12 21
-29 22 -29 2 0 -8 -4 -15 -9 -15 -5 0 -11 7 -15 15 -7 20 -33 19 -45 -2 -9
-16 -12 -16 -20 -3 -7 10 -29 16 -68 17 -32 1 -68 2 -80 2 -12 1 -29 8 -38 17
-20 20 -33 11 -15 -11 8 -10 9 -15 1 -15 -6 0 -11 4 -11 8 0 14 -53 35 -79 33
-14 -2 -35 -9 -47 -17 -12 -9 -25 -11 -28 -6 -3 5 -17 7 -31 4 -21 -4 -25 0
-26 19 -1 16 -3 18 -6 7 -3 -14 -20 -16 -106 -17 -55 0 -106 4 -112 9 -6 5
-31 4 -59 -1 -26 -5 -59 -6 -71 -3 -13 3 -33 0 -45 -6 -18 -10 -22 -9 -27 9
-8 30 -63 30 -63 0 0 -12 -4 -17 -11 -14 -6 4 -8 14 -4 22 4 13 -1 15 -29 10
-22 -3 -37 -1 -40 6 -3 9 -7 8 -14 -1 -8 -12 -15 -11 -40 2 -26 14 -31 14 -42
1 -16 -19 -31 -19 -24 0 4 9 0 15 -9 15 -8 0 -17 -6 -19 -12 -6 -16 -80 -11
-90 5 -5 9 -10 9 -20 -1 -13 -13 -68 -17 -68 -4 0 12 -78 34 -91 26 -6 -3 -35
-8 -64 -10 -41 -3 -58 0 -71 13 -15 16 -17 16 -29 0 -13 -18 -60 -23 -70 -7
-3 6 -17 10 -30 10 -13 0 -26 8 -30 18 -6 16 -7 16 -17 -1 -9 -17 -11 -17 -27
-2 -16 14 -19 14 -31 0 -14 -17 -46 -20 -55 -6 -3 6 -48 10 -100 10 -82 -1
-95 -3 -95 -17 0 -10 -10 -3 -25 19 -23 35 -55 58 -55 39 0 -10 -56 4 -75 20
-8 7 -20 7 -36 1 l-24 -10 23 0 c31 -1 58 -27 37 -35 -8 -3 -17 0 -21 5 -4 6
-20 8 -37 5 -16 -3 -36 -1 -43 5 -7 6 -23 9 -36 7 -13 -2 -32 5 -42 14 -22 20
-36 23 -36 8 0 -5 -25 -10 -55 -10 -42 0 -55 3 -55 15 0 8 -4 15 -10 15 -14 0
-12 -27 3 -33 9 -3 9 -8 1 -17 -9 -9 -18 -8 -42 4 -16 8 -32 12 -35 9 -4 -3
-12 -1 -19 5 -8 6 -38 7 -80 3 -76 -8 -138 -3 -138 10 0 11 7 11 48 0 25 -8
32 -7 32 5 0 8 -8 14 -17 14 -10 0 -29 6 -43 13 -15 8 -34 11 -45 6 -11 -4
-27 -8 -35 -8 -13 -1 -13 0 0 9 11 7 6 10 -20 9 -27 0 -30 -2 -16 -8 13 -5 16
-10 8 -15 -6 -3 -21 -1 -33 6 -16 10 -23 10 -26 2 -2 -7 -13 -9 -25 -7 -11 3
-24 0 -28 -7 -5 -8 -15 -10 -26 -5 -16 6 -16 8 -4 14 22 9 25 41 3 42 -16 0
-16 1 2 9 11 5 14 9 7 9 -22 2 -98 -42 -82 -46 35 -10 43 -14 38 -18 -2 -2
-21 0 -43 6 -27 8 -34 13 -24 19 18 12 5 24 -17 16 -9 -4 -14 -12 -10 -21 4
-13 1 -12 -20 2 -14 9 -21 19 -16 22 10 7 11 51 0 51 -4 0 -8 -7 -8 -17 0 -15
-2 -15 -19 1 -10 9 -31 18 -47 20 -15 2 -30 8 -32 15 -5 15 -22 14 -22 -2z
m946 -4803 c-3 -8 -11 -12 -16 -9 -6 4 -18 1 -26 -6 -8 -7 -11 -15 -5 -18 5
-3 11 -19 12 -36 4 -26 1 -30 -31 -37 -48 -10 -70 -2 -67 25 1 16 -3 21 -15
19 -11 -2 -18 3 -18 13 0 18 -5 19 -30 5 -16 -9 -17 -7 -6 15 12 26 60 40 105
31 13 -3 40 3 60 13 36 19 48 14 37 -15z"/>
<path d="M5086 3549 c3 -5 -12 -10 -33 -10 l-38 -2 40 -6 40 -7 -60 -8 c-33
-4 -84 -12 -114 -17 -30 -5 -73 -9 -95 -9 -44 0 -89 -19 -51 -21 16 0 14 -3
-10 -14 l-30 -14 47 -1 c37 0 46 -3 42 -15 -6 -15 1 -17 106 -17 30 0 66 5 80
11 20 8 6 10 -70 12 -52 1 -84 3 -70 6 55 8 71 14 65 24 -4 6 8 7 33 3 25 -4
42 -2 46 5 4 6 12 11 17 11 6 0 7 -4 4 -10 -14 -22 25 -8 56 21 41 38 44 56
13 62 -13 2 -21 0 -18 -4z"/>
<path d="M8257 3425 c-4 -8 -2 -17 3 -20 20 -12 9 -25 -21 -25 -20 0 -28 -4
-23 -12 5 -8 2 -9 -9 -5 -29 11 -19 -7 14 -25 17 -10 28 -22 25 -27 -4 -5 7
-23 24 -39 35 -35 38 -46 10 -39 -11 3 -18 1 -14 -4 3 -5 11 -9 19 -9 14 0
104 -71 95 -75 -3 -1 1 -9 8 -17 10 -13 10 -17 0 -21 -10 -4 -8 -9 5 -17 9 -6
17 -18 17 -25 0 -8 7 -15 16 -15 10 0 14 -6 11 -14 -3 -8 -1 -16 5 -18 7 -3 6
-9 -3 -19 -20 -21 -20 -35 -1 -36 34 -3 48 -9 70 -31 12 -12 23 -25 25 -29 1
-5 8 -7 14 -7 7 1 10 -2 7 -7 -3 -5 2 -9 11 -9 12 0 15 -6 10 -20 -4 -11 -3
-20 2 -19 23 4 43 -2 41 -13 -2 -7 4 -13 12 -13 8 -1 23 -5 33 -9 15 -7 16
-11 5 -17 -11 -7 -10 -11 2 -19 8 -5 18 -11 23 -12 10 -4 18 -48 8 -48 -4 0
-8 -7 -8 -15 0 -8 7 -15 14 -15 8 0 11 5 8 10 -3 6 -2 10 3 10 15 0 23 -30 9
-31 -7 0 -3 -4 8 -8 23 -9 57 -2 49 10 -3 5 3 6 12 2 11 -4 13 -8 6 -11 -7 -2
-12 -13 -12 -24 0 -15 5 -18 23 -13 19 5 20 5 4 -5 -9 -6 -15 -16 -11 -22 4
-5 -4 -4 -17 3 -22 11 -23 11 -10 -4 16 -19 41 -23 41 -5 0 6 2 9 5 7 9 -10
-8 -48 -24 -52 -9 -3 2 -5 24 -6 28 -1 36 -4 26 -10 -8 -5 -20 -7 -27 -4 -6 2
-15 0 -19 -6 -6 -11 19 -16 62 -12 12 1 24 -3 28 -9 4 -6 3 -10 -2 -9 -20 4
-34 -2 -28 -11 4 -6 15 -8 26 -5 22 7 25 -7 5 -24 -11 -9 -16 -9 -23 1 -10 17
-59 57 -50 41 4 -6 1 -14 -5 -16 -9 -4 -7 -6 3 -6 23 -1 44 -28 27 -33 -8 -3
-5 -10 9 -23 17 -14 20 -22 11 -32 -8 -10 -7 -13 3 -13 12 0 12 -2 1 -9 -10
-6 -9 -10 7 -14 12 -3 21 -1 21 4 0 5 12 8 28 8 16 -1 20 -3 10 -6 -21 -5 -23
-19 -6 -29 7 -4 8 -3 4 4 -4 7 -3 12 3 12 5 0 14 -12 19 -27 6 -16 11 -22 11
-15 1 6 10 12 22 12 13 0 18 4 13 12 -5 8 -2 9 9 5 9 -3 19 -3 21 2 6 9 36 8
53 -2 6 -4 18 -1 26 7 9 9 19 11 28 5 11 -7 11 -9 1 -9 -7 0 -10 -4 -7 -10 3
-5 25 -10 48 -10 45 -1 117 -32 99 -44 -6 -3 -13 -2 -17 4 -4 6 -12 7 -18 3
-21 -13 -40 -15 -124 -16 -46 0 -83 -4 -83 -9 0 -5 5 -6 11 -3 12 8 99 -16 99
-27 0 -5 -11 -6 -25 -2 -14 3 -25 2 -25 -4 0 -5 6 -10 13 -9 32 1 47 -4 44
-15 -1 -9 11 -13 38 -13 27 0 39 -4 37 -13 -2 -9 3 -10 16 -3 11 6 24 6 33 0
12 -7 12 -9 -1 -9 -12 0 -12 -2 -2 -9 11 -6 8 -13 -12 -29 -21 -16 -23 -21
-10 -26 8 -3 12 -10 9 -16 -4 -6 -13 -7 -24 -1 -10 6 -23 6 -31 1 -12 -7 -11
-10 3 -16 9 -3 26 -4 37 -1 14 4 20 0 21 -11 0 -10 3 -12 5 -6 6 15 62 5 68
-13 4 -11 2 -13 -9 -9 -10 3 -15 -1 -15 -12 0 -13 10 -18 46 -20 42 -2 91 -24
87 -39 -4 -14 -28 -21 -46 -11 -10 5 -21 7 -25 4 -3 -3 1 -6 8 -6 9 0 7 -5 -6
-15 -16 -13 -17 -16 -4 -25 21 -14 30 -12 24 4 -4 11 0 13 17 9 14 -4 20 -2
15 5 -3 6 3 13 14 17 11 3 20 11 20 16 0 12 31 11 50 -1 13 -8 11 -11 -7 -16
-19 -5 -20 -8 -8 -20 7 -8 17 -14 20 -14 4 0 20 -11 37 -25 16 -14 36 -25 44
-25 8 0 14 -5 14 -11 0 -11 43 -2 48 11 4 10 42 0 42 -11 0 -5 -8 -6 -17 -2
-17 6 -17 5 0 -14 18 -20 17 -20 -24 -16 -24 3 -44 1 -48 -6 -12 -19 -65 3
-71 30 -4 18 -13 25 -35 26 -27 2 -28 2 -8 -7 18 -7 43 -38 43 -53 0 -4 -50
-18 -74 -21 -19 -2 -17 -26 3 -26 11 0 23 -5 27 -11 5 -8 9 -8 14 1 5 8 12 7
24 -5 15 -15 16 -15 16 10 0 20 -4 26 -15 21 -8 -3 -15 -1 -15 5 0 7 10 9 26
5 17 -5 23 -3 19 4 -3 5 -1 10 4 10 6 0 11 -5 11 -11 0 -7 10 -9 25 -7 13 3
26 1 28 -5 1 -5 11 -2 20 7 10 11 17 13 17 5 0 -9 4 -8 15 1 27 22 16 0 -12
-25 -16 -13 -22 -25 -15 -25 6 0 12 -5 12 -12 0 -6 -9 -3 -20 7 -16 14 -23 15
-34 6 -9 -7 -25 -10 -38 -6 -22 6 -22 5 -4 -9 13 -10 24 -12 36 -6 12 6 21 4
33 -10 14 -17 14 -19 -1 -25 -14 -5 -14 -7 -2 -16 11 -8 12 -12 2 -16 -6 -2
-10 -9 -6 -14 11 -18 22 -9 19 16 -1 18 1 22 9 16 6 -5 23 -8 39 -6 15 2 27
-1 27 -7 0 -5 -9 -6 -21 -3 -15 5 -19 4 -15 -4 4 -6 0 -11 -8 -11 -9 0 -16 -5
-16 -11 0 -6 6 -9 13 -6 7 3 19 -4 25 -14 7 -10 17 -19 23 -19 5 0 8 4 4 9 -3
6 5 9 17 8 28 -2 69 -37 51 -44 -21 -8 -15 -23 10 -23 29 0 53 -15 38 -24 -8
-5 -7 -12 4 -22 21 -21 19 -31 -7 -38 -22 -6 -22 -7 7 -23 20 -11 30 -12 33
-4 2 6 20 11 40 12 l37 0 -40 17 c-22 9 -41 23 -43 30 -3 17 13 15 28 -3 7 -8
23 -15 36 -15 12 0 26 -5 29 -11 4 -6 17 -14 29 -19 16 -7 11 -9 -26 -9 -27
-1 -48 -5 -48 -9 0 -17 39 -44 51 -36 8 4 10 3 5 -4 -4 -7 -20 -12 -36 -12
-37 0 -48 -17 -18 -29 21 -9 21 -10 3 -10 -12 -1 -26 4 -32 10 -6 6 -16 10
-23 7 -6 -2 16 -17 49 -33 32 -17 57 -33 55 -37 -3 -4 -18 2 -33 13 -16 12
-36 19 -44 17 -28 -6 5 -36 43 -39 19 -2 46 -9 60 -16 14 -7 34 -13 44 -13 11
0 28 -7 38 -17 15 -14 18 -14 18 -1 0 19 27 19 35 0 3 -8 12 -11 21 -8 8 3 12
2 9 -4 -3 -6 -3 -11 2 -11 47 -7 63 -6 63 2 0 6 4 8 9 5 5 -3 7 -15 4 -26 -3
-11 0 -20 6 -20 6 0 11 4 11 10 0 5 7 7 16 3 8 -3 13 -12 10 -19 -4 -10 3 -14
20 -14 16 0 23 4 18 12 -4 7 -3 8 5 4 6 -4 18 0 27 9 9 9 19 13 23 10 3 -4 -5
-14 -17 -24 -16 -12 -21 -22 -16 -36 6 -14 4 -16 -7 -9 -8 4 -24 10 -37 12
-37 5 -24 -32 13 -38 18 -3 31 -12 33 -23 3 -14 -4 -17 -45 -17 l-48 -1 33
-29 c25 -23 28 -30 15 -30 -23 0 -56 20 -34 20 11 0 9 4 -5 14 -11 9 -21 10
-25 5 -3 -6 -10 -9 -15 -8 -20 3 -34 -2 -34 -12 0 -6 7 -8 16 -5 8 3 12 2 9
-4 -7 -11 9 -30 39 -47 15 -8 28 -7 53 5 27 13 38 14 53 4 24 -15 33 -15 25
-2 -10 17 5 11 27 -10 26 -24 66 -26 74 -5 4 8 15 15 25 15 21 0 26 -16 7 -23
-26 -9 3 -20 54 -21 48 -1 53 1 50 19 -3 20 -3 20 11 1 10 -13 16 -15 21 -8
11 19 50 14 64 -8 10 -17 10 -20 -5 -20 -20 -1 -64 -30 -45 -30 7 0 12 -6 12
-14 0 -9 -8 -12 -26 -8 -19 3 -25 1 -20 -7 4 -6 14 -11 22 -11 17 0 18 -7 2
-24 -7 -7 -23 -10 -37 -8 -24 5 -25 4 -11 -13 14 -17 13 -18 -12 -12 -15 4
-30 3 -33 -3 -5 -8 -12 -7 -23 2 -13 11 -14 11 -10 -2 3 -8 16 -15 31 -15 14
0 29 -3 33 -8 4 -4 15 0 25 9 14 12 22 13 38 5 17 -9 20 -9 15 3 -8 22 34 31
55 12 10 -9 26 -13 39 -9 12 3 22 1 22 -5 0 -5 -19 -12 -41 -16 l-42 -7 22
-23 22 -23 -25 -5 c-18 -4 -26 -1 -26 8 0 8 -5 14 -11 14 -6 0 -9 7 -5 15 4
10 -1 15 -14 15 -11 0 -17 -5 -15 -13 4 -9 -9 -12 -47 -11 -84 2 -86 2 -68 15
12 9 12 10 -3 5 -10 -3 -24 -6 -30 -6 -6 0 0 -11 13 -25 13 -14 18 -25 12 -25
-6 0 -9 -7 -5 -17 4 -11 3 -14 -6 -9 -7 5 -37 5 -68 1 -52 -6 -54 -8 -49 -31
4 -14 2 -24 -4 -24 -5 0 -10 10 -11 23 0 12 -3 17 -5 10 -3 -7 -18 -9 -40 -6
-27 5 -34 2 -34 -11 0 -23 43 -39 51 -18 5 13 7 13 12 -3 9 -22 5 -27 -27 -29
-14 0 -26 -4 -26 -8 0 -8 58 -28 82 -28 18 0 18 1 4 16 -9 8 -16 23 -16 32 1
12 9 7 30 -17 29 -33 65 -47 76 -29 3 5 13 3 22 -4 14 -11 15 -10 8 7 -5 15
-4 17 5 8 16 -15 3 -32 -20 -26 -10 3 -22 0 -25 -6 -7 -11 15 -15 69 -12 16 1
34 -4 40 -12 6 -7 28 -13 50 -13 22 0 52 -3 68 -8 23 -7 27 -5 27 12 0 21 -32
38 -49 28 -13 -8 -62 15 -55 25 3 5 16 9 30 9 13 0 24 4 24 10 0 5 -19 8 -43
6 l-43 -3 -2 45 c-2 53 13 79 35 60 11 -9 16 -9 23 3 8 11 13 10 32 -10 13
-13 17 -21 10 -17 -18 11 -82 -13 -82 -30 0 -8 7 -14 15 -14 28 0 75 -30 75
-48 0 -13 2 -14 9 -3 10 15 31 7 31 -13 0 -8 14 -19 30 -26 33 -14 42 -35 10
-25 -14 5 -20 2 -20 -9 0 -9 6 -16 14 -16 8 0 19 -14 25 -31 15 -44 14 -46 -9
-21 -11 12 -20 25 -20 29 0 13 -44 11 -52 -1 -5 -7 -8 -4 -8 7 0 12 -8 17 -30
17 -37 0 -46 -3 -43 -12 2 -5 -2 -8 -7 -8 -6 0 -10 -7 -10 -15 0 -8 9 -15 20
-15 11 0 20 4 20 9 0 9 23 0 60 -24 18 -11 89 -14 96 -3 3 4 14 8 25 8 25 0
24 15 -2 33 l-21 15 22 7 c12 4 24 4 27 1 4 -3 -2 -6 -13 -6 -15 0 -16 -2 -5
-9 14 -9 51 17 44 31 -2 4 3 5 11 2 18 -7 22 -24 6 -24 -5 0 -10 -4 -10 -8 0
-12 46 -32 78 -33 17 -1 20 -3 10 -6 -33 -8 -10 -43 28 -43 12 0 24 -4 26 -9
2 -4 23 -11 47 -14 29 -4 40 -2 30 4 -7 5 -24 9 -36 9 -13 0 -27 10 -34 22 -7
12 -21 30 -33 40 -12 9 -16 17 -10 18 6 0 17 -7 24 -15 7 -9 22 -15 34 -14 36
3 56 -1 56 -11 0 -6 -11 -8 -26 -4 -38 10 -27 -17 12 -29 44 -13 84 -18 83 -9
-4 22 3 31 18 25 11 -4 14 -3 9 5 -5 9 5 12 36 11 43 -2 118 25 118 42 0 4 10
13 22 20 19 10 20 9 14 -7 -5 -11 -9 -23 -10 -29 -4 -25 -20 -37 -42 -32 -15
3 -24 0 -24 -9 0 -7 -9 -16 -20 -19 -23 -7 -26 -20 -7 -29 6 -4 -3 -4 -20 -1
-44 6 -42 -8 5 -25 25 -9 31 -15 20 -18 -24 -5 -23 -11 10 -38 18 -16 22 -24
12 -24 -9 0 -4 -9 15 -25 17 -13 36 -22 43 -20 6 2 13 0 13 -5 1 -6 2 -16 3
-22 1 -7 9 -12 18 -10 9 1 20 -3 24 -9 11 -19 -74 -2 -106 21 -15 11 -29 17
-32 15 -8 -8 -78 24 -78 35 0 6 -7 10 -15 10 -8 0 -15 4 -15 8 0 12 -46 32
-71 32 -11 0 -22 6 -25 14 -12 32 -107 48 -110 19 -4 -38 -4 -38 -13 -24 -7
10 -11 5 -16 -18 -8 -40 -18 -39 -30 1 -10 33 -39 58 -52 45 -4 -5 -1 -12 7
-17 8 -6 12 -10 7 -10 -4 0 -1 -12 6 -27 8 -16 13 -33 10 -39 -2 -6 8 -16 22
-22 15 -7 25 -8 25 -2 0 6 5 10 10 10 6 0 10 -6 10 -14 0 -8 7 -17 16 -20 8
-3 12 -2 9 4 -3 6 -1 10 5 10 7 0 10 7 7 14 -4 10 -1 13 9 9 17 -6 18 -15 2
-32 -9 -9 -9 -12 -1 -7 6 3 14 0 16 -6 3 -8 6 -5 6 6 1 17 3 16 19 -5 28 -37
34 -59 16 -59 -11 0 -14 -6 -10 -16 3 -8 2 -12 -4 -9 -6 3 -10 1 -10 -4 0 -6
18 -11 40 -11 42 0 50 9 25 30 -12 10 -13 16 -5 24 8 8 14 6 21 -7 15 -25 43
-23 29 2 -5 11 -10 34 -10 51 0 18 -4 29 -10 25 -5 -3 -10 0 -10 7 0 7 -11 21
-25 33 -14 11 -27 31 -30 44 -4 23 -4 23 17 5 12 -11 30 -27 40 -37 10 -9 22
-17 27 -17 6 0 25 -14 43 -31 23 -22 26 -28 11 -20 -30 15 -29 5 5 -44 17 -25
36 -41 52 -43 14 -2 27 -8 28 -13 5 -12 62 -12 62 1 0 5 8 7 18 4 12 -4 10 0
-7 15 -13 12 -19 21 -14 21 5 0 15 -6 22 -12 11 -10 14 -10 18 0 3 6 11 12 19
12 8 0 14 5 14 10 0 6 7 10 15 10 8 0 15 7 15 15 0 22 18 18 25 -5 3 -11 10
-20 15 -20 5 0 6 7 3 17 -4 11 -3 14 5 9 7 -4 12 -24 12 -44 l0 -36 -16 23
c-15 21 -18 21 -26 7 -17 -30 2 -36 115 -36 62 0 108 4 102 8 -5 4 -17 16 -25
27 -8 11 -1 8 16 -7 27 -25 38 -28 102 -28 40 0 72 2 72 5 0 4 -7 19 -15 35
-16 31 -29 37 -40 20 -14 -22 -26 -8 -23 28 l3 37 -52 3 c-57 3 -62 -1 -36
-30 9 -10 11 -18 5 -18 -6 0 -19 11 -30 25 -11 13 -22 21 -26 18 -3 -3 -6 -1
-6 5 0 7 5 12 12 12 6 0 2 10 -10 23 -13 14 -18 27 -13 35 6 10 14 4 28 -20
l20 -34 69 3 c103 5 133 9 147 22 10 8 17 7 25 -1 16 -16 21 -7 11 20 -7 18
-16 22 -49 22 -27 0 -39 4 -35 11 4 6 -3 21 -15 34 -18 19 -30 23 -85 21 -52
-1 -65 2 -68 16 -4 14 -1 15 20 7 32 -12 56 -12 48 1 -7 12 33 53 45 45 5 -3
11 -2 14 3 5 8 -88 44 -124 48 -26 3 -92 35 -86 41 5 6 111 -24 174 -48 17 -7
22 -5 22 7 0 11 4 12 19 4 31 -16 36 -12 9 9 -13 11 -37 23 -51 26 -15 4 -24
11 -21 17 4 6 -6 8 -24 5 -37 -6 -47 1 -56 37 -6 23 -4 27 8 23 8 -3 17 1 20
9 8 21 8 21 -14 27 -11 3 -20 10 -20 16 0 5 14 3 31 -7 23 -12 33 -14 36 -5 2
7 12 9 21 6 15 -6 15 -4 -1 14 -12 14 -25 19 -39 15 -14 -3 -26 1 -34 13 -13
18 -15 18 -44 -3 -16 -13 -30 -18 -30 -13 0 5 5 13 11 16 7 5 2 15 -12 28
l-22 21 23 10 c17 8 25 7 28 -2 2 -6 8 -12 13 -12 6 0 7 5 4 10 -3 6 0 10 7
10 25 1 -18 19 -56 24 -20 2 -50 12 -68 20 -17 9 -49 19 -70 22 -21 4 -38 10
-38 13 0 4 -10 18 -21 30 -17 18 -19 25 -9 31 7 4 10 12 6 18 -4 7 3 8 24 2
18 -5 30 -5 30 1 0 5 12 9 26 9 14 0 23 4 19 10 -3 6 -14 10 -24 10 -24 0 -47
26 -29 33 27 9 -6 22 -75 29 -161 17 -213 24 -224 31 -6 4 -15 2 -19 -4 -5 -9
-11 -7 -21 6 -7 11 -13 22 -13 27 0 12 28 9 32 -4 3 -7 12 -5 26 8 35 30 28
44 -22 44 -26 0 -51 6 -59 15 -13 13 -20 13 -56 0 -22 -7 -43 -10 -45 -6 -3 4
18 13 47 20 44 10 53 10 63 -4 6 -8 15 -15 19 -15 5 0 0 9 -10 20 -10 11 -15
23 -12 27 4 4 13 -2 21 -12 12 -17 13 -16 11 6 -2 23 -35 42 -35 20 0 -6 -13
-11 -30 -11 -16 0 -30 5 -30 10 0 6 8 10 18 10 26 0 82 29 110 56 l23 22 -31
7 c-30 7 -42 25 -16 25 7 0 16 10 20 22 4 18 8 20 18 10 6 -6 16 -12 21 -12 5
0 -1 9 -14 19 -13 11 -27 16 -32 12 -4 -4 -33 -4 -65 0 -33 3 -62 2 -69 -4 -7
-5 -13 -5 -13 -1 0 5 -14 15 -32 23 -31 14 -31 15 -10 24 26 12 28 23 6 35
-14 8 -13 13 11 36 15 15 35 28 45 29 10 1 17 4 15 8 -8 11 -55 -3 -55 -17 0
-7 -4 -15 -9 -18 -12 -8 -62 11 -75 29 -6 8 -34 16 -64 18 -29 2 -55 7 -59 11
-13 13 -25 5 -20 -14 3 -13 0 -20 -9 -20 -8 0 -14 6 -14 13 0 9 -9 12 -29 9
-16 -2 -32 1 -35 7 -4 6 -4 11 1 12 30 2 61 9 82 17 24 9 24 9 3 14 -12 4 -22
2 -22 -4 0 -6 -7 -7 -16 -4 -8 3 -12 2 -9 -4 3 -6 1 -10 -4 -10 -6 0 -11 3
-12 8 0 4 -2 17 -3 29 -1 12 1 20 6 17 4 -3 8 6 8 20 0 15 -8 30 -20 36 -15 8
-20 8 -20 -1 0 -8 -4 -9 -13 0 -8 6 -16 9 -18 7 -2 -2 -19 -6 -37 -9 -23 -5
-31 -3 -26 5 4 7 3 8 -4 4 -6 -3 -16 3 -22 14 -6 11 -15 18 -20 15 -5 -3 -12
0 -16 6 -5 9 1 10 22 5 29 -7 29 -7 9 12 -12 10 -27 22 -35 25 -12 4 -11 6 2
6 9 1 20 -4 23 -9 4 -7 12 -7 25 0 26 14 33 13 26 -5 -3 -8 0 -15 6 -15 7 0 6
-5 -2 -15 -7 -9 -11 -17 -9 -19 12 -11 46 -14 59 -6 12 7 10 11 -10 18 -18 7
-3 9 58 7 45 -1 82 2 82 7 0 5 -9 6 -21 3 -13 -4 -27 0 -40 11 -13 12 -33 17
-59 16 -45 -3 -63 14 -24 24 20 5 23 9 12 16 -8 6 -2 7 20 3 18 -4 32 -2 32 3
0 12 -44 29 -94 36 -22 3 -44 12 -48 21 -11 19 -29 20 -22 1 6 -16 -36 -14
-82 5 -37 15 -107 19 -115 6 -4 -6 -20 -5 -44 3 -24 8 -33 15 -25 20 8 5 4 9
-10 13 -14 4 -21 11 -17 20 4 10 -6 18 -32 26 -50 15 -51 14 -51 -10 0 -15 -4
-19 -16 -15 -9 3 -18 6 -20 6 -3 0 -2 5 1 10 3 6 -2 10 -12 10 -14 0 -15 2 -4
9 11 7 11 9 0 14 -8 3 0 6 18 6 56 2 52 40 -4 41 -12 0 -34 6 -50 14 -15 8
-58 29 -95 48 -38 18 -68 36 -68 40 0 4 9 10 20 13 23 7 17 25 -8 25 -23 0
-47 36 -29 44 7 3 -7 3 -30 1 -23 -3 -45 0 -48 5 -4 6 5 10 20 10 35 0 28 21
-11 32 -16 5 -63 10 -104 10 -41 1 -59 3 -40 6 19 2 37 7 40 11 9 13 72 31 84
24 6 -5 -1 -10 -19 -14 -58 -12 3 -22 73 -13 57 8 67 12 67 29 0 11 5 23 10
27 9 7 -10 6 -132 -8 -35 -3 -53 -2 -53 5 0 6 9 11 20 11 11 0 20 5 20 10 0 6
-11 8 -26 4 -21 -5 -31 0 -54 25 -25 27 -26 31 -10 31 27 0 34 17 10 23 -12 3
-59 5 -105 4 -47 -1 -85 1 -85 6 0 4 8 7 18 8 27 2 173 -3 219 -6 23 -2 54 0
70 5 27 8 27 8 -9 9 -21 1 -38 6 -38 12 0 8 -4 8 -14 0 -10 -8 -31 -10 -68 -4
l-53 7 73 8 c74 8 112 21 112 39 0 6 -7 3 -16 -6 -19 -19 -62 -13 -80 11 -13
16 -29 20 -19 4 8 -13 -16 -13 -49 0 -18 6 -26 6 -26 -1 0 -6 -5 -7 -11 -3
-20 12 12 22 43 14 15 -5 26 -5 24 -1 -9 14 -150 39 -239 43 -29 1 -43 4 -35
9 8 6 0 8 -22 8 -27 0 -31 -2 -15 -8 18 -7 17 -8 -7 -13 -20 -4 -25 -2 -20 10
4 12 -1 14 -21 10 -15 -3 -27 -1 -27 3 0 5 -14 9 -31 9 -20 0 -29 4 -26 13 2
6 11 10 18 8 8 -2 25 -4 39 -5 14 -2 36 -6 50 -9 14 -4 45 -9 70 -11 39 -4 43
-3 28 8 -23 17 -23 30 -2 22 14 -5 15 -4 4 9 -10 12 -31 14 -98 12 -47 -2 -79
-1 -72 1 9 3 5 10 -11 19 -17 10 -18 12 -4 7 40 -14 73 -16 93 -5 15 8 29 7
56 -4 34 -15 116 -21 103 -9 -3 4 -26 8 -51 10 -25 1 -53 8 -63 14 -15 10 -14
10 9 5 56 -11 244 -16 228 -5 -8 5 -28 7 -44 4 -16 -3 -26 -2 -23 2 3 5 -25 9
-61 10 -37 0 -107 4 -156 9 -87 8 -89 9 -68 26 27 21 29 33 3 17 -15 -9 -25
-9 -46 0 -42 19 -53 13 -17 -9 18 -12 31 -24 28 -26 -3 -3 -17 4 -32 16 -15
11 -35 21 -45 21 -32 0 -30 17 2 18 60 2 42 12 -22 13 -70 0 -193 23 -169 31
8 2 37 -1 65 -7 54 -13 250 -19 267 -9 15 10 -12 24 -45 24 -16 0 -35 7 -43
15 -9 8 -24 15 -35 15 -10 0 -19 4 -19 9 0 5 -25 8 -55 6 -30 -1 -52 1 -50 6
8 11 -60 23 -96 15 -17 -3 -28 -2 -24 4 10 16 92 22 149 10 50 -10 58 -9 74 6
16 17 16 17 0 11 -10 -3 -20 -2 -23 4 -4 5 -11 6 -17 3 -6 -4 -16 0 -22 8 -6
8 -18 17 -26 21 -8 3 6 6 31 6 25 1 63 10 85 20 38 19 65 19 31 0 -9 -6 -17
-15 -17 -21 0 -7 5 -6 15 2 8 7 15 9 15 6 0 -4 7 0 16 8 8 9 22 16 29 16 8 0
16 4 20 9 7 13 -114 12 -137 0 -28 -15 -21 7 8 26 20 13 23 19 13 26 -7 4 -18
4 -24 -1 -24 -20 -210 -7 -219 15 -4 11 3 13 27 9 83 -14 129 -16 164 -8 33 7
26 9 -56 15 -51 4 -96 11 -100 16 -3 5 -28 10 -56 11 -81 5 -84 6 -78 16 3 5
-2 15 -12 22 -26 19 -15 25 25 14 27 -8 36 -7 43 5 4 8 16 15 25 16 9 1 1 5
-18 10 -29 8 -124 10 -202 6 -25 -2 -22 -13 5 -21 l22 -7 -22 -11 c-17 -8 -31
-6 -65 10 -43 20 -43 20 -18 30 14 6 37 13 53 16 49 11 24 34 -30 27 -6 -1
-14 3 -17 8 -4 6 15 9 48 8 30 -2 52 1 50 5 -3 5 -20 8 -38 8 -17 0 -38 6 -45
13 -11 10 -12 9 -6 -1 6 -11 3 -11 -16 0 -13 7 -26 15 -29 18 -3 3 -16 7 -30
8 -14 2 -27 6 -30 9 -3 3 7 4 22 1 59 -11 63 37 5 53 -33 9 -36 2 -4 -11 20
-8 19 -9 -10 -9 -17 -1 -35 4 -38 9 -3 6 -24 10 -46 10 -21 0 -39 4 -39 10 0
20 -36 50 -67 56 -40 8 -48 17 -27 35 14 12 14 14 -3 20 -16 7 -16 8 0 8 9 1
17 5 17 10 0 5 -9 7 -20 4 -11 -3 -20 0 -20 6 0 17 -67 14 -73 -4z"/>
<path d="M4960 3296 c-70 -25 -100 -38 -100 -44 1 -16 26 -38 38 -34 22 7 126
-29 111 -39 -7 -4 -18 -4 -24 0 -5 5 -44 11 -85 15 -68 6 -73 5 -55 -8 11 -9
34 -16 50 -16 50 -1 77 -11 70 -27 -4 -12 1 -14 22 -9 l28 6 -30 -25 c-16 -14
-22 -23 -12 -19 9 3 17 1 17 -5 0 -6 -7 -11 -15 -11 -8 0 -15 -5 -15 -10 0
-17 51 -5 66 15 11 15 11 21 2 26 -16 10 -7 18 23 24 13 3 32 15 42 27 10 13
16 18 13 11 -4 -6 -2 -14 4 -18 5 -3 10 3 10 14 0 12 6 21 13 21 6 0 3 7 -8
16 -14 10 -19 25 -18 48 1 32 0 34 -25 27 -15 -5 -47 -5 -72 -1 -42 7 -43 8
-10 9 27 1 31 4 20 11 -17 11 -15 11 -60 -4z"/>
<path d="M4946 2889 c3 -5 -4 -9 -15 -9 -14 0 -21 -6 -21 -20 0 -14 -7 -20
-22 -21 -17 -1 -19 -2 -5 -6 9 -2 17 -9 17 -14 0 -6 -4 -8 -9 -4 -5 3 -12 1
-16 -5 -3 -5 -16 -10 -28 -10 -17 0 -19 -2 -8 -9 11 -7 10 -10 -5 -14 -18 -4
-18 -5 1 -6 11 -1 27 -6 35 -12 12 -8 8 -10 -17 -7 -18 3 -29 0 -26 -5 3 -5
-10 -6 -30 -3 -24 4 -39 1 -47 -9 -7 -8 -20 -15 -29 -15 -11 1 -8 5 9 15 l25
14 -37 1 c-20 0 -45 3 -55 6 -15 5 -15 4 -3 -5 12 -9 11 -11 -7 -11 -13 0 -23
4 -23 8 0 5 -17 8 -37 8 -21 -1 -38 4 -38 9 0 6 8 9 18 8 26 -4 21 4 -15 21
-39 20 -44 20 -28 1 17 -20 -4 -20 -24 1 -9 8 -21 12 -28 8 -8 -5 -4 -10 10
-15 28 -10 29 -33 2 -26 -11 3 -22 2 -25 -3 -6 -9 53 -22 66 -14 6 3 17 0 25
-7 8 -7 37 -11 66 -10 28 1 56 -3 62 -8 7 -6 26 -11 43 -13 18 -1 30 -5 27 -9
-2 -4 -31 -1 -64 7 -33 7 -70 13 -83 13 -28 -1 -185 10 -214 16 -13 2 -23 -1
-23 -6 0 -5 -15 -10 -32 -10 -18 -1 -46 -5 -63 -9 -19 -6 -2 -7 50 -5 86 5
148 5 180 0 11 -1 26 -3 33 -4 8 0 10 -6 6 -13 -6 -10 -5 -10 8 -1 8 7 18 10
21 6 12 -12 7 -23 -10 -23 -15 0 -16 -2 -3 -10 11 -7 5 -10 -24 -10 -30 0 -37
-3 -32 -15 7 -20 1 -19 -19 2 -14 14 -24 15 -56 6 -49 -13 -49 7 1 24 l35 12
-40 -2 c-22 0 -46 2 -52 6 -11 7 -83 0 -92 -9 -2 -2 9 -4 26 -4 19 0 33 -6 37
-16 4 -9 2 -13 -5 -8 -8 4 -7 0 0 -15 13 -24 12 -24 45 -12 20 8 29 5 51 -15
31 -28 29 -28 48 -9 13 13 19 13 49 0 31 -13 32 -14 8 -16 -14 -1 -32 -1 -42
0 -9 1 -18 -2 -21 -6 -3 -4 24 -8 59 -7 65 1 79 -7 47 -25 -13 -7 12 -10 85
-8 56 1 102 4 102 8 0 10 -30 39 -40 39 -5 0 -10 -4 -12 -9 -1 -4 -14 -12 -27
-16 -16 -5 -21 -4 -17 4 4 6 14 11 23 11 9 0 14 2 11 5 -2 3 -25 1 -51 -4 -34
-6 -47 -5 -51 4 -5 14 2 25 16 25 5 0 6 -4 3 -10 -7 -11 55 -2 69 11 5 4 0 5
-12 2 -32 -8 -95 16 -88 34 3 8 6 17 6 19 0 2 12 4 26 4 17 0 23 4 18 13 -6
10 -4 10 7 0 7 -7 22 -13 34 -12 20 0 20 0 0 10 -14 6 -3 8 40 7 74 -2 105 7
105 33 0 10 5 19 11 19 5 0 7 -4 4 -10 -3 -5 -1 -10 5 -10 6 0 9 -3 7 -7 -3
-5 8 -9 24 -10 16 -1 29 1 29 6 0 4 14 6 30 3 21 -3 30 0 28 8 -2 6 11 20 29
29 24 14 29 21 21 29 -9 9 -9 12 0 12 9 0 10 5 3 19 -6 10 -7 21 -4 25 3 3 1
6 -6 6 -8 0 -11 7 -7 15 3 8 1 15 -4 15 -5 0 -7 7 -4 15 4 8 2 16 -2 16 -38 6
-53 5 -48 -2z"/>
<path d="M9640 2667 c0 -5 -13 -7 -32 -3 -19 3 -27 2 -20 -2 8 -5 -7 -9 -37
-10 -28 0 -53 3 -56 9 -7 11 -45 12 -45 2 0 -5 -25 -6 -55 -5 -38 3 -59 -1
-69 -11 -13 -12 -8 -14 32 -12 26 1 53 -2 59 -8 7 -5 34 -6 60 -3 35 5 44 4
33 -4 -11 -8 -5 -9 25 -5 22 2 76 7 120 10 89 7 113 19 70 35 -40 15 -85 19
-85 7z"/>
<path d="M4587 2513 c-15 -2 -25 -8 -22 -13 3 -5 -8 -4 -25 2 -22 7 -35 7 -42
0 -8 -8 -3 -13 17 -18 20 -5 23 -9 13 -15 -8 -6 3 -9 32 -9 25 0 51 -4 57 -8
7 -4 -42 -8 -110 -9 -109 0 -117 1 -77 11 l45 11 -74 3 c-80 3 -117 -11 -57
-22 27 -5 34 -11 31 -25 -3 -16 5 -20 58 -25 34 -3 89 -9 122 -13 58 -8 59 -8
31 -21 -18 -8 -45 -10 -71 -6 -28 4 -45 2 -50 -6 -5 -8 -10 -8 -21 1 -12 10
-13 9 -8 -4 4 -11 -1 -16 -18 -19 -19 -2 -15 -5 17 -15 22 -6 72 -17 110 -24
84 -14 96 -19 90 -29 -3 -5 3 -13 12 -19 15 -9 12 -11 -17 -11 -19 -1 -44 -6
-55 -11 -15 -7 -9 -8 21 -4 53 6 62 -3 21 -25 -22 -12 -40 -15 -62 -9 -50 12
-135 17 -141 7 -3 -5 0 -8 7 -7 24 5 99 -12 94 -21 -3 -5 -21 -7 -40 -6 -38 3
-67 -17 -39 -28 8 -3 28 -6 42 -7 l27 -1 -25 -7 c-14 -4 -39 -3 -56 2 -30 9
-92 2 -82 -9 3 -2 25 -8 49 -13 l44 -9 -45 -2 -45 -2 55 -11 c39 -8 48 -12 30
-15 -27 -4 -53 -22 -32 -22 7 0 20 -8 31 -19 10 -10 36 -23 57 -29 36 -9 33
-10 -40 -10 -60 0 -82 -3 -91 -15 -6 -8 -24 -17 -40 -19 -20 -2 -29 -9 -31
-25 -3 -20 1 -23 29 -24 30 -1 31 -1 7 -9 -14 -4 -20 -8 -14 -9 10 -1 11 -16
6 -73 -1 -11 -15 -18 -41 -23 -30 -5 -38 -10 -34 -23 2 -10 -5 -22 -17 -30
-12 -7 -20 -8 -20 -2 0 5 -9 10 -21 10 -11 0 -17 5 -14 10 3 6 -1 10 -9 10 -8
0 -18 -5 -22 -11 -3 -6 -17 -8 -31 -4 -22 5 -25 3 -19 -12 6 -17 5 -17 -8 0
-15 19 -36 23 -36 6 0 -6 -9 -8 -22 -3 -59 20 -200 -8 -183 -36 9 -15 55 -17
67 -3 6 8 17 12 24 9 7 -3 15 0 18 7 2 7 5 2 5 -11 1 -12 -6 -25 -14 -28 -8
-4 -15 -15 -15 -25 0 -11 -7 -19 -17 -19 -16 0 -16 2 -3 10 11 8 0 9 -37 5
-39 -4 -53 -2 -53 7 0 9 -3 8 -10 -2 -15 -24 -13 -25 35 -22 32 3 53 -1 73
-14 15 -10 30 -17 35 -16 11 3 8 -16 -3 -23 -6 -4 -17 -1 -25 5 -9 8 -15 8
-15 2 0 -16 -64 -52 -92 -52 -37 0 -125 -28 -142 -46 -9 -8 -21 -12 -27 -8 -7
4 -9 3 -5 -4 4 -6 -4 -12 -21 -14 -16 -2 -28 -7 -28 -13 0 -5 -4 -16 -9 -23
-6 -10 0 -12 31 -8 28 5 33 4 18 -3 -19 -9 -18 -10 5 -11 22 -2 20 -4 -11 -14
-23 -7 -34 -16 -31 -24 3 -11 0 -12 -17 -3 -11 7 -21 8 -21 3 0 -13 35 -21 49
-13 16 10 81 1 81 -11 0 -6 -11 -8 -25 -6 -14 3 -28 1 -31 -3 -3 -5 1 -9 8
-10 7 0 2 -4 -10 -10 -13 -5 -22 -15 -19 -21 4 -13 10 -13 77 -3 19 3 52 8 73
11 31 5 36 8 26 20 -6 8 -19 14 -28 15 -12 0 -11 2 4 8 11 5 23 4 26 -1 8 -13
20 -12 29 2 10 16 31 3 29 -18 -3 -33 1 -41 17 -35 13 5 13 8 2 15 -9 7 -4 8
16 3 20 -4 34 -1 47 11 10 9 40 19 65 21 26 2 59 11 73 19 l26 15 -27 -5 c-14
-3 -33 -9 -42 -12 -9 -3 -16 -1 -16 6 0 7 -8 9 -22 5 -23 -7 -23 -7 -3 9 11 8
28 16 38 16 9 0 17 6 17 14 0 9 -10 12 -32 9 -124 -14 -176 -18 -172 -12 2 4
-35 6 -83 4 -66 -2 -80 0 -58 7 17 5 56 9 88 9 32 -1 57 3 57 9 0 5 -9 10 -19
10 -11 0 -23 5 -26 10 -3 6 0 10 8 10 8 0 17 7 21 15 3 8 17 15 31 15 15 0 25
6 25 14 0 7 15 21 34 30 18 8 39 22 46 31 7 8 16 12 21 9 5 -3 18 1 29 9 20
14 19 15 -24 28 -46 13 -54 36 -9 24 20 -5 29 -1 42 17 9 13 15 27 13 32 -2 5
20 6 48 4 27 -3 50 -1 50 3 0 5 -15 10 -32 10 -19 1 -25 3 -15 6 27 7 87 -6
87 -18 0 -6 -5 -7 -12 -3 -8 5 -9 2 -5 -9 4 -10 2 -17 -5 -17 -7 0 -6 -5 2
-15 12 -14 10 -15 -11 -11 -13 2 -33 7 -44 11 -19 6 -19 6 -2 -8 9 -8 17 -22
17 -31 0 -9 6 -16 14 -16 10 0 12 7 8 22 l-5 22 38 -23 c21 -12 47 -20 57 -18
10 3 18 1 18 -4 0 -5 -6 -9 -13 -9 -8 0 -22 -9 -32 -20 -16 -18 -16 -20 -2
-20 10 0 17 -4 17 -10 0 -5 18 -10 40 -10 39 0 39 -1 28 -25 -6 -14 -19 -25
-28 -25 -24 0 -32 -11 -18 -27 14 -17 -6 -35 -28 -26 -8 3 -18 -6 -24 -21 -5
-14 -14 -26 -20 -26 -6 0 -9 4 -6 9 3 4 -6 6 -19 3 -14 -2 -25 -8 -25 -12 0
-5 10 -6 23 -2 18 5 20 3 10 -9 -14 -17 -93 -39 -155 -43 -26 -2 -58 -14 -82
-30 -21 -14 -46 -26 -55 -26 -13 0 -13 -2 -2 -9 9 -6 -2 -11 -33 -15 -50 -8
-56 -22 -9 -21 20 0 32 -7 41 -24 6 -13 12 -25 12 -27 0 -2 -6 -4 -12 -4 -7 0
-47 -11 -88 -24 -59 -19 -68 -25 -45 -26 27 -2 26 -3 -10 -10 -22 -5 -51 -12
-64 -17 -21 -9 -22 -11 -8 -24 16 -15 18 -11 -32 -66 -13 -14 -16 -25 -10 -29
8 -4 7 -9 -2 -15 -10 -6 -3 -13 24 -24 31 -13 37 -20 34 -40 -1 -13 -11 -33
-21 -44 -18 -20 -11 -30 10 -13 5 4 -7 -8 -26 -25 -29 -27 -33 -34 -20 -43 17
-11 14 -11 -47 -12 -24 0 -43 -5 -43 -11 0 -6 -3 -7 -7 -4 -3 4 -13 1 -22 -6
-21 -17 -129 -50 -140 -42 -6 3 -9 -9 -9 -26 1 -17 7 -33 14 -36 7 -2 10 -11
7 -19 -3 -8 0 -14 5 -14 6 0 9 -9 7 -21 -3 -15 4 -24 28 -34 18 -8 26 -14 19
-15 -7 0 -10 -4 -7 -10 3 -5 1 -10 -4 -10 -19 0 -12 -18 10 -23 13 -3 18 -10
14 -17 -4 -7 -16 -10 -26 -7 -10 3 -22 1 -25 -4 -3 -5 1 -9 9 -9 8 0 22 -12
32 -26 14 -22 15 -28 4 -35 -11 -7 -11 -9 1 -9 11 0 12 -3 3 -8 -9 -6 -8 -15
4 -40 8 -17 20 -29 26 -25 5 3 7 2 4 -4 -7 -11 -36 -11 -54 0 -6 4 -14 1 -16
-5 -3 -8 -6 -6 -6 5 -1 25 -18 21 -25 -7 -3 -14 -14 -27 -24 -29 -9 -3 3 -6
28 -7 l45 -2 -37 -16 c-21 -10 -38 -22 -38 -27 0 -14 -66 -38 -80 -30 -5 3
-10 2 -10 -4 0 -5 5 -13 10 -16 15 -9 -8 -36 -28 -33 -8 2 -17 -3 -19 -9 -3
-8 4 -13 17 -13 19 0 21 -4 17 -45 l-4 -45 161 0 161 0 -32 23 c-18 12 -34 31
-37 42 -10 37 -6 73 8 78 10 4 13 1 9 -9 -3 -7 -1 -14 5 -14 6 0 8 -9 5 -20
-4 -15 0 -20 16 -20 12 0 21 6 21 15 0 8 4 15 9 15 11 0 2 -38 -10 -46 -21
-13 -5 -19 51 -19 47 0 59 -3 55 -14 -4 -9 1 -12 15 -8 11 3 18 1 15 -3 -3 -5
9 -11 26 -15 24 -6 36 -2 55 16 13 12 24 29 24 36 0 8 4 12 9 8 5 -3 16 1 23
9 11 10 19 11 33 3 14 -7 20 -7 23 1 2 7 8 10 12 7 13 -8 87 48 82 63 -2 6 1
12 6 12 6 0 12 -6 15 -12 2 -7 5 6 5 30 1 30 -3 40 -11 36 -9 -5 -9 -4 0 6 8
9 8 21 -4 48 -8 19 -13 46 -10 59 2 13 0 23 -5 23 -5 0 -6 5 -3 10 4 6 10 8
15 5 5 -3 19 0 30 7 17 11 22 11 30 -2 5 -8 13 -11 17 -6 10 10 -25 36 -49 36
-22 0 -22 4 -2 34 8 13 25 27 38 30 12 3 23 11 24 18 1 7 4 36 6 64 5 69 13
90 41 108 20 13 25 25 25 61 0 25 -4 45 -10 45 -5 0 -12 11 -16 24 -4 19 -14
25 -50 31 -24 3 -44 10 -44 14 0 4 21 12 46 19 37 10 44 15 35 26 -9 10 -8 15
2 19 19 7 41 -8 33 -22 -15 -23 12 -10 28 14 16 24 16 26 -9 35 -29 11 -34 24
-6 15 11 -3 21 0 24 7 2 7 26 19 51 27 45 13 87 53 72 68 -3 3 0 13 7 21 10
13 9 15 -6 9 -16 -6 -16 -5 -1 25 15 30 15 31 -4 26 -18 -5 -19 -3 -10 12 7
11 18 16 27 12 14 -5 14 -3 3 11 -8 9 -11 25 -8 35 4 13 1 22 -9 26 -8 3 -15
0 -15 -7 0 -19 -67 -68 -84 -61 -9 3 -16 1 -16 -5 0 -6 -7 -11 -15 -11 -30 0
-14 19 35 41 35 16 52 30 59 51 5 15 22 33 36 40 19 8 25 17 21 31 -3 13 1 21
15 24 25 7 24 20 -1 28 -21 7 -25 16 -13 29 11 11 11 46 0 46 -6 0 0 11 13 25
13 14 20 25 16 25 -5 0 -2 8 5 17 12 14 12 16 -1 11 -11 -4 -16 0 -17 12 -1
10 5 21 13 24 9 3 13 10 9 15 -3 6 3 14 12 20 10 6 12 11 6 11 -7 0 -13 9 -13
19 0 11 -5 21 -12 23 -16 6 25 50 43 47 20 -3 50 12 43 22 -3 5 1 6 9 3 8 -3
17 2 21 11 3 9 10 14 15 11 5 -3 11 3 14 13 3 11 17 22 35 26 30 6 53 36 33
43 -5 2 -7 10 -4 18 4 10 0 12 -13 7 -17 -6 -17 -5 -6 10 12 13 10 18 -7 29
-12 7 -21 16 -21 21 0 4 5 5 12 1 8 -5 9 -2 5 10 -4 10 -3 15 3 11 6 -3 10 -1
10 4 0 6 7 11 16 11 14 0 15 2 3 17 -12 15 -12 16 4 10 10 -4 21 -7 23 -7 2 0
4 -8 4 -17 0 -15 2 -16 10 -3 6 10 10 11 10 3 0 -7 6 -13 13 -13 6 1 2 9 -10
19 -26 22 -30 36 -8 27 19 -7 47 3 39 15 -9 15 6 10 24 -7 10 -11 17 -13 20
-5 2 6 -4 18 -12 27 -18 18 -20 30 -6 39 6 3 7 -1 4 -9 -3 -9 -1 -16 5 -16 6
0 11 6 11 13 0 8 11 19 25 25 14 6 25 18 25 27 0 8 3 14 8 13 13 -3 42 14 37
22 -3 4 2 11 11 14 9 4 14 13 10 22 -3 8 -2 12 3 9 12 -7 24 12 16 24 -3 6
-21 4 -45 -4 -34 -12 -40 -12 -40 0 0 7 -11 22 -25 33 -30 24 -33 37 -6 22 15
-7 23 -6 35 6 21 21 20 22 -11 17 -21 -3 -17 1 17 17 35 16 41 23 30 30 -10 7
-11 10 -2 10 6 0 12 5 12 11 0 5 -3 8 -8 5 -4 -2 -18 2 -31 9 -14 7 -41 11
-60 10 -20 -1 -24 0 -9 2 14 2 29 11 32 18 3 8 1 14 -3 12 -5 -1 -8 2 -7 8 0
5 15 8 32 6 21 -1 33 3 38 14 3 9 2 13 -4 10 -5 -3 -12 5 -16 19 -3 13 -12 27
-20 30 -8 3 -14 10 -14 15 0 6 8 7 18 4 15 -6 16 -5 2 13 -27 35 -49 39 -133
27z m-907 -2199 c0 -8 5 -12 10 -9 6 4 8 11 5 16 -4 5 -1 9 4 9 6 0 11 -8 11
-18 0 -26 9 -32 34 -22 17 6 23 5 23 -6 0 -8 -10 -14 -23 -14 -12 0 -25 -7
-28 -16 -3 -8 -11 -12 -17 -9 -7 5 -9 -5 -5 -30 4 -24 2 -43 -6 -53 -11 -13
-11 -14 1 -7 11 6 13 4 8 -8 -3 -10 -2 -17 3 -17 19 0 10 -18 -11 -23 -14 -4
-18 -10 -13 -19 4 -7 -2 -5 -14 5 -20 18 -20 18 -15 -1 6 -25 -11 -36 -27 -17
-7 8 -9 15 -4 15 4 0 -8 14 -26 30 -18 17 -40 30 -47 30 -8 0 -16 7 -19 15 -4
8 -13 15 -21 15 -10 0 -12 6 -7 22 6 20 5 21 -9 10 -25 -21 -27 7 -3 50 18 35
56 53 56 28 0 -5 -9 -10 -20 -10 -13 0 -20 -7 -20 -20 0 -25 41 -28 64 -5 18
19 26 19 26 1 0 -8 6 -17 13 -19 13 -6 -15 -10 -49 -8 -11 1 -27 -5 -34 -13
-14 -18 -7 -20 21 -6 10 6 19 7 19 2 0 -5 14 -12 31 -16 21 -4 28 -10 23 -18
-6 -10 -4 -10 8 0 13 10 19 10 31 -3 9 -8 18 -11 21 -6 4 5 0 12 -6 14 -10 4
-9 8 2 16 13 9 12 12 -7 17 -26 7 -31 24 -8 24 15 0 38 34 29 43 -4 3 -16 2
-28 -2 -24 -9 -46 -4 -46 10 0 6 5 7 10 4 17 -11 49 5 43 21 -3 7 0 14 6 14 6
0 11 -7 11 -16z"/>
<path d="M11348 2208 c4 -17 2 -20 -13 -14 -16 6 -16 4 -4 -11 12 -15 12 -16
-5 -10 -15 6 -17 5 -8 -6 7 -8 8 -17 4 -21 -4 -5 0 -7 8 -6 30 4 60 0 60 -9 0
-13 -84 -19 -92 -7 -4 6 -10 7 -15 3 -12 -13 20 -28 47 -23 14 3 32 1 40 -4 9
-5 19 -5 27 2 10 8 18 7 31 -5 9 -8 29 -18 44 -22 15 -4 44 -24 65 -46 21 -21
50 -44 65 -50 16 -6 28 -16 28 -21 0 -5 9 -7 20 -3 10 3 29 1 41 -5 15 -8 24
-9 32 -1 11 11 1 17 -38 23 -11 2 -25 10 -32 19 -6 8 -30 23 -52 33 -22 10
-40 21 -39 25 3 27 -4 51 -15 51 -23 0 -75 29 -81 45 -3 9 -19 15 -40 15 -44
0 -66 9 -66 25 0 8 8 11 20 8 29 -8 24 4 -9 21 -28 15 -29 15 -23 -6z"/>
<path d="M10064 2194 c4 -12 2 -15 -9 -10 -8 3 -15 1 -15 -4 0 -5 12 -12 28
-16 46 -10 48 -11 22 -21 -18 -7 -28 -6 -38 3 -21 21 -30 17 -26 -13 2 -16 1
-20 -2 -10 -3 9 -14 17 -24 17 -20 0 -18 -20 4 -48 7 -10 4 -18 -13 -31 l-22
-17 20 -19 c25 -21 28 -40 5 -31 -8 3 -12 2 -9 -4 8 -13 56 -13 75 0 13 9 13
11 0 20 -8 5 -23 10 -32 10 -9 0 -20 5 -24 11 -4 8 1 9 16 4 15 -5 20 -4 16 4
-4 6 -3 11 3 11 5 0 11 -6 14 -12 3 -10 11 -10 39 0 46 16 69 16 62 -2 -4 -9
5 -15 25 -18 17 -3 31 -1 31 4 0 4 -6 8 -12 8 -9 0 -9 3 1 9 19 12 57 7 101
-13 l35 -16 -40 5 -40 5 43 -14 c23 -8 48 -18 55 -23 7 -5 24 -14 39 -21 26
-11 27 -10 16 7 -6 11 -17 17 -24 14 -6 -2 -15 1 -19 7 -3 6 -3 10 2 9 30 -5
20 5 -31 31 -32 17 -71 30 -87 30 -15 0 -31 5 -34 10 -4 6 6 10 22 10 l27 0
-23 16 c-18 13 -36 15 -80 10 -44 -5 -61 -3 -70 7 -9 12 -7 13 14 9 40 -7 136
8 128 20 -4 8 0 9 11 5 10 -4 15 -3 11 3 -3 6 -17 10 -31 10 -13 0 -24 4 -24
9 0 12 -86 35 -99 26 -6 -3 -11 -1 -11 4 0 6 -7 11 -16 11 -11 0 -14 -5 -10
-16z"/>
<path d="M4870 1913 c0 -5 -12 -9 -26 -10 -15 0 -30 -6 -33 -12 -4 -6 -31 -10
-61 -8 -53 2 -55 1 -58 -25 -3 -24 0 -28 21 -28 21 0 24 -4 19 -22 -3 -14 -1
-19 6 -14 6 4 21 2 32 -4 11 -6 20 -7 20 -1 0 5 -7 12 -16 15 -8 3 -12 10 -9
16 4 7 13 6 27 -1 23 -12 40 3 31 28 -8 21 8 15 29 -12 11 -14 24 -25 30 -25
6 0 5 7 -3 17 -9 10 -9 14 -2 10 18 -11 53 28 53 58 0 28 -20 35 -21 8 0 -15
-2 -15 -7 -3 -7 16 -32 25 -32 13z"/>
<path d="M3824 1875 c-11 -8 -14 -14 -6 -15 16 0 53 -61 47 -77 -2 -7 2 -13
11 -13 8 0 17 -6 20 -14 8 -22 47 -7 41 15 -6 23 -1 24 20 3 13 -12 18 -13 24
-3 4 7 5 17 3 21 -3 5 2 11 10 14 9 3 13 10 10 15 -3 5 9 17 26 28 l32 19 -44
4 c-24 3 -47 2 -53 -1 -5 -3 -14 -6 -20 -6 -5 -1 -19 -5 -29 -10 -15 -6 -23
-3 -34 13 -17 26 -31 27 -58 7z"/>
<path d="M7033 1450 c-6 -23 -51 -28 -71 -8 -9 9 -12 8 -12 -4 0 -9 6 -18 12
-20 8 -3 4 -9 -10 -17 -14 -7 -22 -8 -22 -1 0 5 -5 10 -11 10 -5 0 -8 -4 -5
-9 4 -5 -3 -7 -15 -4 -18 5 -20 3 -14 -16 4 -13 2 -21 -5 -21 -6 0 -8 5 -5 10
3 6 2 10 -4 10 -17 0 -21 -17 -6 -30 8 -7 20 -8 27 -4 24 16 44 14 24 -2 -20
-14 -20 -14 0 -29 17 -13 17 -14 2 -15 -15 0 -16 -4 -6 -25 6 -14 19 -25 29
-25 10 0 21 -4 24 -10 3 -5 2 -10 -3 -10 -15 0 -8 -55 8 -72 19 -19 95 -35 85
-18 -4 6 -17 15 -29 20 -18 8 -19 9 -2 9 16 1 16 3 -5 22 -13 11 -18 18 -12
14 9 -4 11 -1 7 9 -3 9 -14 16 -23 17 -10 0 -11 2 -3 6 6 2 12 14 12 24 0 17
5 19 35 15 22 -4 35 -2 35 5 0 7 10 5 25 -5 23 -15 25 -15 34 3 9 15 7 17 -13
14 -23 -5 -42 19 -30 38 3 5 0 9 -7 9 -6 0 -9 8 -6 20 3 11 1 18 -4 14 -21
-12 -27 8 -13 42 8 19 12 39 9 44 -10 16 -27 11 -32 -10z"/>
<path d="M7875 1330 c-3 -5 -3 -15 0 -20 4 -7 -2 -9 -18 -5 -14 4 -28 2 -31
-3 -3 -6 -16 -8 -28 -4 -14 3 -19 2 -14 -6 4 -7 2 -12 -4 -12 -8 0 -8 -6 1
-21 7 -14 17 -19 30 -16 12 3 19 0 19 -9 0 -8 -6 -14 -12 -15 -7 0 -1 -5 15
-11 40 -14 34 -34 -10 -36 -21 -1 -39 -6 -41 -12 -2 -5 -13 -10 -23 -10 -25 0
-111 -38 -121 -53 -10 -16 10 -37 34 -37 14 0 18 -5 14 -16 -3 -9 -6 -20 -6
-26 0 -6 -6 -5 -15 2 -20 17 -29 7 -16 -18 13 -25 -6 -44 -37 -35 -17 4 -22 1
-22 -15 0 -12 5 -24 12 -28 7 -5 8 -3 3 6 -5 9 -4 11 3 6 7 -4 12 -19 12 -34
l1 -27 17 21 c16 19 21 20 55 8 35 -12 37 -12 37 9 0 30 11 43 38 44 18 2 22
-2 18 -13 -4 -10 1 -18 13 -21 17 -4 17 -7 4 -33 -8 -17 -19 -27 -27 -24 -8 3
-17 1 -20 -5 -4 -6 -13 -8 -21 -4 -8 3 -15 0 -15 -6 0 -6 8 -11 18 -11 28 0
44 -16 45 -46 3 -36 27 -74 48 -74 9 0 24 -17 34 -40 12 -26 25 -40 37 -40 10
0 18 5 18 10 0 6 9 10 20 10 11 0 20 -6 20 -13 0 -8 9 -22 20 -32 20 -18 21
-18 14 -1 -6 16 -3 17 17 11 13 -4 29 -13 35 -21 6 -7 14 -11 18 -7 9 10 36
13 36 4 0 -4 13 -15 30 -24 29 -17 29 -17 23 0 -5 15 -4 16 8 5 12 -11 11 -16
-6 -28 -20 -15 -20 -15 -1 -47 48 -81 55 -99 45 -119 -8 -14 -6 -31 7 -64 9
-24 21 -44 25 -44 5 0 9 -7 9 -15 0 -8 5 -15 10 -15 6 0 10 -9 10 -19 0 -11 7
-26 15 -35 8 -8 15 -22 15 -30 0 -9 5 -16 11 -16 5 0 7 -5 3 -11 -11 -18 17
-117 35 -124 9 -4 22 3 33 17 14 18 20 20 27 10 10 -17 23 53 15 85 -7 25 39
83 67 83 11 0 19 11 23 35 4 19 16 41 28 49 13 9 19 22 16 34 -3 10 0 26 7 36
12 16 14 16 23 0 5 -9 12 -12 15 -7 9 15 -25 103 -83 213 -16 30 -29 64 -29
76 -1 11 -6 25 -12 31 -8 8 -9 20 -1 43 7 18 7 28 1 25 -17 -11 -149 104 -149
131 0 8 -4 14 -9 14 -15 0 -53 107 -46 130 5 17 3 21 -12 18 -12 -2 -19 4 -21
20 -2 13 -14 28 -28 34 -13 6 -24 17 -24 24 0 17 -47 64 -65 64 -8 0 -17 5
-21 11 -4 8 -9 7 -15 -2 -6 -11 -11 -11 -21 -1 -6 6 -20 12 -30 12 -9 0 -22 8
-28 18 -9 14 -10 14 -5 -6 6 -22 5 -23 -15 -12 -15 8 -20 18 -17 32 4 14 -5
30 -29 53 -19 18 -34 38 -34 44 0 14 -17 14 -25 1z"/>
<path d="M7046 1079 c3 -5 12 -9 20 -9 17 0 17 -2 2 -35 -12 -27 -24 -32 -31
-12 -2 6 -4 0 -4 -15 0 -22 4 -28 21 -28 17 0 18 -2 6 -10 -12 -8 -11 -10 6
-10 11 0 29 -7 40 -15 22 -17 61 -20 66 -5 2 6 13 12 26 15 12 2 27 7 32 10 5
3 18 1 27 -5 13 -8 13 -10 3 -7 -9 3 -24 -1 -35 -9 -17 -13 -15 -14 21 -13 59
2 89 13 91 34 2 11 0 14 -3 8 -8 -18 -24 -16 -24 2 0 10 -11 14 -37 14 -129
-1 -138 0 -118 15 11 8 24 12 28 9 5 -3 7 3 5 13 -2 12 -12 19 -28 19 -15 0
-26 7 -28 18 -2 9 -9 18 -15 18 -52 7 -76 6 -71 -2z"/>
<path d="M1155 227 c-4 -8 -20 -25 -38 -37 -18 -13 -26 -17 -19 -8 11 14 10
17 -5 21 -17 4 -17 5 0 6 9 0 17 6 17 12 0 8 -11 9 -32 5 -32 -6 -78 -49 -78
-73 0 -16 45 -23 110 -17 30 3 77 6 104 7 44 2 50 5 59 30 11 34 10 34 -32 42
-25 4 -37 1 -46 -11 -11 -15 -12 -15 -11 6 1 26 -21 39 -29 17z"/>
<path d="M10544 157 c16 -12 16 -14 -9 -25 -16 -7 -23 -17 -19 -24 4 -7 3 -8
-5 -4 -6 4 -9 11 -6 15 2 5 -3 17 -11 27 -15 19 -15 19 -6 0 7 -14 6 -24 -3
-33 -16 -15 -29 -17 -20 -3 3 6 -1 10 -9 10 -27 0 -6 -31 25 -37 16 -3 29 -10
29 -14 0 -5 -12 -6 -26 -3 -17 4 -29 2 -35 -7 -6 -10 -9 -11 -9 -1 0 6 -9 12
-20 12 -19 0 -19 -1 -2 -18 26 -26 53 -35 45 -16 -3 10 0 12 10 8 9 -3 18 -12
21 -20 3 -9 11 -12 16 -9 6 4 16 2 23 -3 7 -5 21 -6 31 -2 18 6 16 8 -11 18
-17 5 -35 7 -39 4 -3 -4 -2 3 4 14 6 12 9 24 7 28 -3 3 1 2 7 -4 22 -19 31
-10 12 12 l-19 22 28 -21 c29 -22 50 -21 75 4 10 9 10 18 2 33 -6 11 -15 18
-21 15 -5 -4 -9 -1 -9 5 0 7 -6 10 -14 7 -8 -3 -17 1 -20 9 -3 8 -13 14 -23
14 -16 0 -16 -1 1 -13z"/>
</g>
</svg>
